<svg width="817" height="800" viewBox="0 0 817 800" fill="none" xmlns="http://www.w3.org/2000/svg">
<path d="M189.402 12.5264C174.642 12.5264 162.68 24.4889 162.68 39.2482V760.751C162.68 775.511 174.642 787.473 189.402 787.473H777.294C792.053 787.473 804.016 775.511 804.016 760.751V132.776L683.766 12.5264H189.402Z" fill="#ECEDEF"/>
<path d="M710.487 132.776H804.015L683.765 12.5264V106.054C683.763 120.811 695.729 132.776 710.487 132.776Z" fill="#D9DCDF"/>
<path d="M643.681 306.472H162.68V65.9702H643.681C651.059 65.9702 657.042 71.953 657.042 79.3312V293.109C657.042 300.489 651.059 306.472 643.681 306.472Z" fill="#C6CACF"/>
<path d="M630.321 279.75H15.4287L122.318 172.859L15.4287 65.9702H630.321V279.75Z" fill="#C4DF64"/>
<path d="M804.016 666.389C810.935 666.389 816.543 660.781 816.543 653.862V132.777C816.543 129.495 815.196 126.239 812.875 123.92L692.625 3.67031C690.3 1.34844 687.047 0 683.765 0H189.402C167.76 0 150.154 17.6062 150.154 39.2484V53.4453H12.4286C1.51145 53.4453 -4.1573 67.0984 3.57082 74.8281L101.604 172.861L3.57082 270.892C-4.1573 278.622 1.50988 292.275 12.4286 292.275H150.154V760.752C150.154 782.394 167.76 800 189.402 800H777.294C798.937 800 816.543 782.394 816.543 760.752V707.306C816.543 700.389 810.936 694.78 804.016 694.78C797.096 694.78 791.49 700.387 791.49 707.306V760.752C791.49 768.58 785.121 774.948 777.293 774.948H189.402C181.574 774.948 175.205 768.58 175.205 760.752V292.275H256.207C263.126 292.275 268.733 286.667 268.733 279.748C268.733 272.83 263.127 267.222 256.207 267.222H42.6693L128.176 181.716C133.068 176.823 133.068 168.892 128.176 164.002L42.6693 78.4969H617.794V267.223H309.652C302.733 267.223 297.126 272.831 297.126 279.75C297.126 286.669 302.732 292.277 309.652 292.277H630.321C637.24 292.277 642.847 286.669 642.847 279.75V65.9703C642.847 59.0531 637.241 53.4437 630.321 53.4437H175.205V39.2469C175.205 31.4188 181.574 25.05 189.402 25.05H671.24V106.052C671.24 127.694 688.846 145.3 710.488 145.3H791.49V653.859C791.49 660.781 797.096 666.389 804.016 666.389ZM710.488 120.25C702.66 120.25 696.291 113.881 696.291 106.053V42.7656L773.774 120.25H710.488Z" fill="black"/>
<path d="M232 583.305C232 590.222 237.606 595.831 244.527 595.831H311.333C315.275 595.831 318.989 593.975 321.353 590.82L345.095 559.163L365.911 652.828C367.188 658.57 372.47 662.725 378.347 662.636C384.222 662.545 389.367 658.192 390.448 652.42L417.162 509.945L445.933 692.148C446.895 698.241 452.344 702.811 458.508 702.719C464.669 702.627 469.972 697.856 470.734 691.747L498.653 468.4L526.052 678.455C526.83 684.428 531.944 689.102 537.962 689.348C543.978 689.595 549.458 685.344 550.72 679.458L577.548 554.261L592.956 638.992C593.895 644.155 598.097 648.275 603.275 649.114C608.623 649.981 614.061 647.202 616.484 642.353L639.745 595.833H698.808C705.727 595.833 711.334 590.225 711.334 583.306C711.334 576.389 705.728 570.78 698.808 570.78H632.002C627.256 570.78 622.919 573.461 620.798 577.705L610.881 597.538L590.88 487.536C589.816 481.683 584.597 477.306 578.653 477.252C572.783 477.198 567.536 481.417 566.308 487.152L541.48 603.025L510.808 367.906C510.003 361.739 504.591 356.992 498.37 357C492.139 357.008 486.731 361.791 485.958 367.973L456.863 600.745L430.592 434.378C429.642 428.358 424.494 423.895 418.398 423.808C412.312 423.719 407.03 428.033 405.908 434.023L377.094 587.689L363.639 527.145C361.366 516.922 347.691 513.952 341.391 522.347L305.066 570.78H244.523C237.606 570.778 232 576.388 232 583.305Z" fill="black"/>
<path d="M278.585 228.385C265.632 228.385 255.772 225.098 249.005 218.525C242.335 211.855 239 201.802 239 188.365V138.57C239 132.19 242.19 129 248.57 129C254.853 129 257.995 132.19 257.995 138.57V187.35C257.995 195.567 259.832 201.415 263.505 204.895C267.275 208.375 272.302 210.115 278.585 210.115C284.868 210.115 289.847 208.375 293.52 204.895C297.193 201.415 299.03 195.567 299.03 187.35V138.57C299.03 135.477 299.852 133.108 301.495 131.465C303.235 129.822 305.603 129 308.6 129C314.883 129 318.025 132.19 318.025 138.57V188.365C318.025 201.802 314.69 211.855 308.02 218.525C301.35 225.098 291.538 228.385 278.585 228.385Z" fill="black"/>
<path fill-rule="evenodd" clip-rule="evenodd" d="M247.601 219.949L247.591 219.939C240.411 212.759 237 202.105 237 188.365V138.57C237 135.072 237.876 132.081 239.978 129.978C242.081 127.876 245.072 127 248.57 127C252.028 127 254.987 127.88 257.064 129.989C259.135 132.092 259.995 135.079 259.995 138.57V187.35C259.995 195.34 261.791 200.509 264.871 203.434C268.192 206.495 272.692 208.115 278.585 208.115C284.486 208.115 288.927 206.491 292.145 203.443C295.23 200.52 297.03 195.348 297.03 187.35V138.57C297.03 135.128 297.951 132.181 300.081 130.051L300.101 130.031L300.122 130.011C302.321 127.934 305.227 127 308.6 127C312.058 127 315.017 127.88 317.094 129.989C319.165 132.092 320.025 135.079 320.025 138.57V188.365C320.025 202.105 316.614 212.759 309.434 219.939L309.429 219.944L309.424 219.95C302.255 227.014 291.859 230.385 278.585 230.385C265.309 230.385 254.872 227.013 247.611 219.96L247.601 219.949ZM263.505 204.895C259.832 201.415 257.995 195.567 257.995 187.35V138.57C257.995 132.19 254.853 129 248.57 129C242.19 129 239 132.19 239 138.57V188.365C239 201.802 242.335 211.855 249.005 218.525C255.772 225.098 265.632 228.385 278.585 228.385C291.538 228.385 301.35 225.098 308.02 218.525C314.69 211.855 318.025 201.802 318.025 188.365V138.57C318.025 132.19 314.883 129 308.6 129C305.603 129 303.235 129.822 301.495 131.465C299.852 133.108 299.03 135.477 299.03 138.57V187.35C299.03 195.567 297.193 201.415 293.52 204.895C289.847 208.375 284.868 210.115 278.585 210.115C272.302 210.115 267.275 208.375 263.505 204.895Z" fill="black"/>
<path d="M167.41 221.655L182.249 177.139L197.088 221.655C199.337 228.397 206.984 231.939 213.593 229.334C219.696 226.93 222.926 219.945 220.856 213.731L194.134 133.564C192.429 128.448 187.641 125 182.251 125C176.86 125 172.073 128.45 170.368 133.564L143.646 213.731C141.459 220.295 145.005 227.388 151.57 229.577C158.129 231.763 165.223 228.217 167.41 221.655Z" fill="black"/>
<path d="M437.858 216.694V163.248C437.858 141.606 420.252 124 398.609 124H358.527C351.609 124 346 129.608 346 136.527V216.694C346 223.611 351.608 229.22 358.527 229.22H425.333C432.248 229.22 437.858 223.611 437.858 216.694ZM412.805 204.167H371.052V149.053H398.609C406.438 149.053 412.806 155.422 412.806 163.25V204.167H412.805Z" fill="black"/>
<path d="M490 218.381V137.619C490 130.651 484.404 125 477.5 125C470.597 125 465 130.649 465 137.619V218.381C465 225.349 470.596 231 477.5 231C484.404 231 490 225.349 490 218.381Z" fill="black"/>
<path d="M580.972 230.22C587.889 230.22 593.498 224.612 593.498 217.694V137.527C593.498 130.609 587.891 125 580.972 125H527.527C520.609 125 515 130.608 515 137.527V217.694C515 224.611 520.608 230.22 527.527 230.22H580.972ZM540.053 150.053H568.445V205.167H540.053V150.053Z" fill="black"/>
</svg>
