<svg width="800" height="800" viewBox="0 0 800 800" fill="none" xmlns="http://www.w3.org/2000/svg">
<g clip-path="url(#clip0_1_188)">
<path d="M166.132 12.5266C151.373 12.5266 139.41 24.4891 139.41 39.2485V760.752C139.41 775.511 151.373 787.474 166.132 787.474H754.024C768.784 787.474 780.746 775.511 780.746 760.752V132.777L660.496 12.5266H166.132Z" fill="#ECEDEF"/>
<path d="M687.218 132.777H780.746L660.496 12.5266V106.055C660.496 120.811 672.459 132.777 687.218 132.777Z" fill="#D9DCDF"/>
<path d="M620.412 306.472H139.41V65.9703H620.412C627.79 65.9703 633.773 71.9531 633.773 79.3313V293.109C633.774 300.489 627.791 306.472 620.412 306.472Z" fill="#C6CACF"/>
<path d="M607.051 279.75H19.1602L126.049 172.859L19.1602 65.9703H607.051V279.75Z" fill="#50C0FF"/>
<path d="M259.66 720.669H660.494C667.872 720.669 673.855 714.686 673.855 707.308V359.917C673.855 352.539 667.872 346.556 660.494 346.556H259.66C252.282 346.556 246.299 352.539 246.299 359.917V707.308C246.299 714.686 252.282 720.669 259.66 720.669Z" fill="#C5E8FA"/>
<path d="M286.384 693.945V346.555H259.662C252.284 346.555 246.301 352.537 246.301 359.916V707.306C246.301 714.684 252.284 720.667 259.662 720.667H660.496C667.874 720.667 673.857 714.684 673.857 707.306V693.945H286.384Z" fill="#97CCE8"/>
<path d="M780.745 666.389C787.662 666.389 793.271 660.781 793.271 653.862V132.777C793.271 129.495 791.923 126.239 789.602 123.92L669.352 3.67031C667.029 1.34844 663.776 0 660.493 0H166.129C144.488 0 126.88 17.6062 126.88 39.2484V53.4453H19.157C8.23984 53.4453 2.56953 67.0984 10.3008 74.8281L108.334 172.861L10.3023 270.894C2.57265 278.623 8.23984 292.277 19.1586 292.277H126.884V760.753C126.884 782.395 144.49 800.002 166.132 800.002H754.024C775.666 800.002 793.273 782.395 793.273 760.753V707.308C793.273 700.391 787.665 694.781 780.746 694.781C773.829 694.781 768.22 700.389 768.22 707.308V760.753C768.22 768.581 761.851 774.95 754.023 774.95H166.13C158.302 774.95 151.934 768.581 151.934 760.753V292.275H232.935C239.852 292.275 245.462 286.667 245.462 279.748C245.462 272.83 239.854 267.222 232.935 267.222H49.3977L134.904 181.716C139.796 176.823 139.796 168.892 134.904 164.002L49.3977 78.4969H594.523V267.223H286.382C279.465 267.223 273.855 272.831 273.855 279.75C273.855 286.669 279.463 292.277 286.382 292.277H607.051C613.968 292.277 619.577 286.669 619.577 279.75V65.9703C619.577 59.0531 613.969 53.4437 607.051 53.4437H151.935V39.2469C151.935 31.4187 158.304 25.05 166.132 25.05H647.968V106.052C647.968 127.694 665.574 145.3 687.216 145.3H768.218V653.859C768.218 660.781 773.827 666.389 780.745 666.389ZM673.018 106.055V42.7656L711.76 81.5078L750.502 120.25H687.213C679.387 120.25 673.018 113.883 673.018 106.055Z" fill="black"/>
<path d="M273.022 733.194H647.135C661.41 733.194 673.022 721.581 673.022 707.306V359.916C673.022 345.641 661.41 334.028 647.135 334.028H273.022C258.747 334.028 247.135 345.641 247.135 359.916V707.306C247.135 721.581 258.747 733.194 273.022 733.194ZM272.186 359.917C272.186 359.456 272.56 359.083 273.021 359.083H647.133C647.594 359.083 647.968 359.456 647.968 359.917V707.308C647.968 707.769 647.594 708.142 647.133 708.142H273.022C272.561 708.142 272.188 707.769 272.188 707.308L272.186 359.917Z" fill="black"/>
<path d="M582.388 561.339C575.561 560.205 569.11 564.811 567.972 571.636L560.944 613.808L551.447 594.817C546.922 585.766 533.564 585.764 529.041 594.817L519.544 613.808L512.516 571.636C511.378 564.812 504.917 560.202 498.1 561.339C491.277 562.477 486.666 568.93 487.803 575.755L501.164 655.922C502.019 661.047 506.092 665.209 511.2 666.172C516.638 667.195 522.249 664.416 524.724 659.464L540.242 628.428L555.761 659.464C558.275 664.492 564.008 667.263 569.51 666.125C574.519 665.091 578.48 660.966 579.32 655.922L592.681 575.755C593.822 568.93 589.211 562.477 582.388 561.339Z" fill="black"/>
<path d="M339.827 425.887H580.329C587.246 425.887 592.855 420.28 592.855 413.361C592.855 406.444 587.248 400.834 580.329 400.834H339.827C332.91 400.834 327.301 406.442 327.301 413.361C327.302 420.28 332.91 425.887 339.827 425.887Z" fill="black"/>
<path d="M339.827 506.055H580.329C587.246 506.055 592.855 500.447 592.855 493.528C592.855 486.611 587.248 481.002 580.329 481.002H339.827C332.91 481.002 327.301 486.609 327.301 493.528C327.302 500.445 332.91 506.055 339.827 506.055Z" fill="black"/>
<path d="M339.827 586.222H446.716C453.634 586.222 459.243 580.614 459.243 573.695C459.243 566.778 453.635 561.169 446.716 561.169H339.827C332.91 561.169 327.301 566.777 327.301 573.695C327.302 580.612 332.91 586.222 339.827 586.222Z" fill="black"/>
<path d="M339.827 666.389H446.716C453.634 666.389 459.243 660.781 459.243 653.862C459.243 646.945 453.635 641.336 446.716 641.336H339.827C332.91 641.336 327.301 646.944 327.301 653.862C327.302 660.78 332.91 666.389 339.827 666.389Z" fill="black"/>
<path d="M494.801 145.303C501.718 145.303 507.327 139.695 507.327 132.777C507.327 125.859 501.72 120.25 494.801 120.25H454.718C447.801 120.25 442.191 125.858 442.191 132.777V212.944C442.191 219.861 447.799 225.47 454.718 225.47H494.801C501.718 225.47 507.327 219.862 507.327 212.944C507.327 206.027 501.72 200.417 494.801 200.417H467.243V145.303H494.801Z" fill="black"/>
<path d="M406.632 225.47C413.549 225.47 419.159 219.862 419.159 212.944V132.777C419.159 125.859 413.551 120.25 406.632 120.25H353.187C346.27 120.25 340.66 125.858 340.66 132.777V212.944C340.66 219.861 346.268 225.47 353.187 225.47H406.632ZM365.713 145.303H394.105V200.417H365.713V145.303Z" fill="black"/>
<path d="M315.631 212.944V159.498C315.631 137.856 298.025 120.25 276.383 120.25H236.3C229.383 120.25 223.773 125.858 223.773 132.777V212.944C223.773 219.861 229.381 225.47 236.3 225.47H303.106C310.022 225.47 315.631 219.861 315.631 212.944ZM290.578 200.417H248.825V145.303H276.383C284.211 145.303 290.58 151.672 290.58 159.5V200.417H290.578Z" fill="black"/>
</g>
<defs>
<clipPath id="clip0_1_188">
<rect width="800" height="800" fill="white"/>
</clipPath>
</defs>
</svg>
