<svg width="800" height="800" viewBox="0 0 800 800" fill="none" xmlns="http://www.w3.org/2000/svg">
<g clip-path="url(#clip0_16_77)">
<path d="M166.132 12.5266C151.373 12.5266 139.41 24.4891 139.41 39.2485V760.752C139.41 775.511 151.373 787.473 166.132 787.473H754.024C768.784 787.473 780.746 775.511 780.746 760.752V132.777L660.496 12.5266H166.132Z" fill="#ECEDEF"/>
<path d="M687.216 132.777H780.744L660.494 12.5266V106.055C660.494 120.811 672.458 132.777 687.216 132.777Z" fill="#D9DCDF"/>
<path d="M620.412 306.472H139.41V65.9702H620.412C627.79 65.9702 633.773 71.953 633.773 79.3312V293.109C633.773 300.489 627.791 306.472 620.412 306.472Z" fill="#C6CACF"/>
<path d="M607.051 279.75H19.1602L126.049 172.859L19.1602 65.9702H607.051V279.75Z" fill="#A8E5FF"/>
<path d="M313.105 667.223L433.355 400H486.801L607.051 667.223H540.245L500.162 587.056H419.995L379.912 667.223H313.105ZM486.801 533.611L460.079 466.805L433.357 533.611H486.801Z" fill="#FFC44F"/>
<path d="M433.355 400L313.105 667.223H344.104L461.682 400H433.355Z" fill="#F79F4D"/>
<path d="M780.746 666.389C787.663 666.389 793.273 660.783 793.273 653.862V132.777C793.273 129.495 791.924 126.239 789.604 123.919L669.354 3.66875C667.029 1.34844 663.777 0 660.495 0H166.13C144.488 0 126.882 17.6062 126.882 39.2484V53.4453H19.1586C8.23986 53.4453 2.57267 67.0984 10.3024 74.8297L108.335 172.861L10.3039 270.892C2.57424 278.622 8.23986 292.277 19.1602 292.277H126.885V760.753C126.885 782.395 144.491 800.002 166.134 800.002H754.026C775.668 800.002 793.274 782.395 793.274 760.753V707.308C793.274 700.389 787.666 694.781 780.748 694.781C773.831 694.781 768.221 700.388 768.221 707.308V760.753C768.221 768.581 761.852 774.95 754.024 774.95H166.132C158.304 774.95 151.935 768.581 151.935 760.753V292.275H232.937C239.854 292.275 245.463 286.669 245.463 279.748C245.463 272.828 239.855 267.222 232.937 267.222H49.3992L134.905 181.719C139.798 176.825 139.798 168.895 134.905 164.003L49.3992 78.4969H594.524V267.223H286.384C279.466 267.223 273.857 272.83 273.857 279.75C273.857 286.67 279.465 292.277 286.384 292.277H607.052C613.97 292.277 619.579 286.67 619.579 279.75V65.9703C619.579 59.0516 613.971 53.4437 607.052 53.4437H151.937V39.2469C151.937 31.4187 158.305 25.05 166.134 25.05H647.97V106.052C647.97 127.694 665.576 145.3 687.218 145.3H768.22V653.859C768.22 660.781 773.829 666.389 780.746 666.389ZM673.02 106.055V42.7656L750.504 120.25H687.215C679.388 120.25 673.02 113.883 673.02 106.055Z" fill="black"/>
<path d="M300.855 664.591C299.166 672.403 305.424 679.889 313.374 679.749H379.91C384.655 679.749 388.993 677.067 391.113 672.823L427.735 599.581H492.418L529.04 672.823C531.16 677.066 535.498 679.749 540.243 679.749H607.049C615.971 679.749 622.138 670.234 618.471 662.081L498.221 394.858C496.199 390.364 491.727 387.472 486.799 387.472H433.354C428.426 387.472 423.954 390.361 421.932 394.858L397.882 448.303C395.043 454.611 397.855 462.028 404.165 464.867C410.471 467.7 417.888 464.892 420.727 458.584L441.454 412.525H478.699L587.676 654.697H547.985L511.363 581.455C509.243 577.213 504.905 574.53 500.16 574.53H419.993C415.248 574.53 410.91 577.211 408.79 581.455L372.168 654.697H332.476L404.693 494.214C407.532 487.906 404.719 480.489 398.41 477.65C392.101 474.811 384.687 477.625 381.848 483.933L301.791 661.838C301.377 662.705 301.06 663.628 300.855 664.591Z" fill="black"/>
<path d="M433.355 546.137H486.801C495.502 546.137 501.668 537.053 498.43 528.959L471.708 462.153C467.601 451.878 452.557 451.878 448.449 462.153L421.727 528.959C418.488 537.053 424.654 546.137 433.355 546.137ZM460.077 500.533L468.297 521.086H451.855L460.077 500.533Z" fill="black"/>
<path d="M526.882 334.03C519.965 334.03 514.355 339.636 514.355 346.556V400C514.355 406.919 519.963 412.527 526.882 412.527H580.327C587.245 412.527 592.854 406.92 592.854 400C592.854 393.081 587.246 387.474 580.327 387.474H539.409V346.555C539.409 339.636 533.801 334.03 526.882 334.03Z" fill="black"/>
<path d="M393.273 412.527C400.19 412.527 405.799 406.92 405.799 400V346.555C405.799 339.636 400.191 334.028 393.273 334.028C386.354 334.028 380.746 339.634 380.746 346.555V387.473H339.827C332.91 387.473 327.301 393.08 327.301 400C327.301 406.919 332.909 412.527 339.827 412.527H393.273Z" fill="black"/>
<path d="M647.134 654.697C640.217 654.697 634.607 660.303 634.607 667.223V720.669C634.607 727.587 640.215 733.195 647.134 733.195C654.051 733.195 659.661 727.589 659.661 720.669V679.75H700.579C707.497 679.75 713.106 674.144 713.106 667.223C713.106 660.303 707.498 654.697 700.579 654.697H647.134Z" fill="black"/>
<path d="M273.021 733.194C279.938 733.194 285.547 727.587 285.547 720.667V667.222C285.547 660.303 279.939 654.695 273.021 654.695H219.575C212.658 654.695 207.049 660.302 207.049 667.222C207.049 674.142 212.657 679.748 219.575 679.748H260.494V720.667C260.496 727.587 266.104 733.194 273.021 733.194Z" fill="black"/>
<path d="M515.446 231.22C522.363 231.22 527.972 225.614 527.972 218.694V151.053H542.169C549.086 151.053 554.696 145.447 554.696 138.527C554.696 131.608 549.088 126 542.169 126H488.724C481.807 126 476.197 131.606 476.197 138.527C476.197 145.445 481.805 151.053 488.724 151.053H502.921V218.694C502.921 225.612 508.529 231.22 515.446 231.22Z" fill="black"/>
<path d="M433.798 143.062L434.889 188.126L401.442 133.42C401.441 133.419 401.441 133.417 401.44 133.416C399.036 129.433 395.143 127.5 390.079 127.5C386.43 127.5 383.437 128.555 381.389 130.904C379.376 133.213 378.5 136.521 378.5 140.558C378.5 148.876 378.586 157.163 378.671 165.437C378.841 181.937 379.011 198.386 378.501 214.928L378.5 214.951V214.974C378.5 219.79 379.381 223.674 381.381 226.384C383.444 229.18 386.526 230.5 390.351 230.5C394.197 230.5 397.058 229.159 398.844 226.285C400.529 223.574 401.113 219.708 401.113 214.977C401.142 206.981 401.244 194.908 401.339 184.831C401.386 179.793 401.432 175.255 401.466 171.976C401.466 171.917 401.467 171.858 401.467 171.8L434.435 224.471L434.438 224.477L434.442 224.483C436.97 228.436 440.564 230.5 445.104 230.5C448.797 230.5 451.824 229.434 453.895 227.065C455.93 224.736 456.818 221.397 456.819 217.319C456.819 217.316 456.819 217.314 456.819 217.312L457.5 143.04H457.5V143.026C457.5 138.21 456.619 134.326 454.619 131.616C452.556 128.82 449.474 127.5 445.649 127.5C441.823 127.5 438.741 128.82 436.678 131.616C434.678 134.326 433.797 138.21 433.797 143.026V143.044L433.798 143.062Z" fill="black" stroke="black" stroke-width="3"/>
<path d="M349.498 218.694V138.527C349.498 131.608 343.891 126 336.972 126H283.527C276.609 126 271 131.606 271 138.527V218.694C271 225.612 276.608 231.22 283.527 231.22H336.972C343.891 231.22 349.498 225.612 349.498 218.694ZM324.447 206.167H296.055V151.053H324.447V206.167Z" fill="black"/>
<path d="M242.67 151.053C249.587 151.053 255.197 145.447 255.197 138.527C255.197 131.608 249.589 126 242.67 126H202.587C195.67 126 190.061 131.606 190.061 138.527V218.694C190.061 225.612 195.668 231.22 202.587 231.22C209.504 231.22 215.114 225.614 215.114 218.694V191.136H229.311C236.228 191.136 241.837 185.53 241.837 178.609C241.837 171.691 236.229 166.083 229.311 166.083H215.114V151.052H242.67V151.053Z" fill="black"/>
</g>
<defs>
<clipPath id="clip0_16_77">
<rect width="800" height="800" fill="white"/>
</clipPath>
</defs>
</svg>
