<svg width="800" height="800" viewBox="0 0 800 800" fill="none" xmlns="http://www.w3.org/2000/svg">
<g clip-path="url(#clip0_1_167)">
<path d="M166.132 12.5266C151.373 12.5266 139.41 24.4891 139.41 39.2485V760.752C139.41 775.511 151.373 787.474 166.132 787.474H754.024C768.784 787.474 780.746 775.511 780.746 760.752V132.777L660.496 12.5266H166.132Z" fill="#ECEDEF"/>
<path d="M687.218 132.777H780.746L660.496 12.5266V106.055C660.496 120.811 672.459 132.777 687.218 132.777Z" fill="#D9DCDF"/>
<path d="M620.412 306.472H139.41V65.9703H620.412C627.79 65.9703 633.773 71.9531 633.773 79.3313V293.109C633.774 300.489 627.791 306.472 620.412 306.472Z" fill="#C6CACF"/>
<path d="M607.051 279.75H19.1602L126.049 172.859L19.1602 65.9703H607.051V279.75Z" fill="#FF8D4D"/>
<path d="M647.134 720.669H273.021C265.643 720.669 259.66 714.686 259.66 707.308V359.917C259.66 352.539 265.643 346.556 273.021 346.556H647.134C654.512 346.556 660.495 352.539 660.495 359.917V707.308C660.495 714.686 654.512 720.669 647.134 720.669Z" fill="#D9DCDF"/>
<path d="M660.495 359.917C660.495 352.539 654.512 346.556 647.134 346.556H273.021C265.643 346.556 259.66 352.539 259.66 359.917V426.723H660.495V359.917Z" fill="#FFC44F"/>
<path d="M286.382 707.306V359.916C286.382 352.537 292.365 346.555 299.743 346.555H273.021C265.643 346.555 259.66 352.537 259.66 359.916V707.306C259.66 714.684 265.643 720.667 273.021 720.667H299.743C292.363 720.669 286.382 714.686 286.382 707.306Z" fill="#C6CACF"/>
<path d="M299.743 346.555H273.021C265.643 346.555 259.66 352.537 259.66 359.916V426.722H286.382V359.916C286.382 352.537 292.363 346.555 299.743 346.555Z" fill="#F79F4D"/>
<path d="M780.745 666.389C787.662 666.389 793.271 660.781 793.271 653.862V132.777C793.271 129.495 791.923 126.239 789.602 123.92L669.352 3.67031C667.034 1.35156 663.773 0 660.493 0H166.129C144.488 0 126.88 17.6062 126.88 39.2484V53.4453H19.157C8.23984 53.4453 2.56953 67.0984 10.3008 74.8281L108.334 172.861L10.3023 270.894C2.57265 278.623 8.23984 292.277 19.1586 292.277H126.884V760.753C126.884 782.395 144.49 800.002 166.132 800.002H754.024C775.666 800.002 793.273 782.395 793.273 760.753V707.308C793.273 700.391 787.665 694.781 780.746 694.781C773.829 694.781 768.22 700.389 768.22 707.308V760.753C768.22 768.581 761.851 774.95 754.023 774.95H166.13C158.302 774.95 151.934 768.581 151.934 760.753V292.275H232.935C239.852 292.275 245.462 286.667 245.462 279.748C245.462 272.83 239.854 267.222 232.935 267.222H49.3977L134.904 181.716C139.796 176.823 139.796 168.892 134.904 164.002L49.3977 78.4969H594.523V267.223H286.382C279.465 267.223 273.855 272.831 273.855 279.75C273.855 286.669 279.463 292.277 286.382 292.277H607.051C613.968 292.277 619.577 286.669 619.577 279.75V65.9703C619.577 59.0531 613.969 53.4437 607.051 53.4437H151.935V39.2469C151.935 31.4187 158.304 25.05 166.132 25.05H647.968V106.052C647.968 127.694 665.574 145.3 687.216 145.3H768.218V653.859C768.218 660.781 773.827 666.389 780.745 666.389ZM673.018 106.055V42.7656L750.502 120.25H687.213C679.387 120.25 673.018 113.883 673.018 106.055Z" fill="black"/>
<path d="M186.216 120.25C179.299 120.25 173.689 125.858 173.689 132.777V212.944C173.689 219.861 179.297 225.47 186.216 225.47C193.135 225.47 198.743 219.862 198.743 212.944V185.386H227.135V212.944C227.135 219.861 232.743 225.47 239.661 225.47C246.58 225.47 252.188 219.862 252.188 212.944V132.777C252.188 125.859 246.58 120.25 239.661 120.25C232.743 120.25 227.135 125.858 227.135 132.777V160.334H198.743V132.777C198.741 125.859 193.133 120.25 186.216 120.25Z" fill="black"/>
<path d="M302.104 225.47C309.021 225.47 314.63 219.862 314.63 212.944V145.303H328.827C335.745 145.303 341.354 139.695 341.354 132.777C341.354 125.859 335.746 120.25 328.827 120.25H275.382C268.465 120.25 262.855 125.858 262.855 132.777C262.855 139.694 268.463 145.303 275.382 145.303H289.579V212.944C289.577 219.861 295.187 225.47 302.104 225.47Z" fill="black"/>
<path d="M444.716 225.47C451.633 225.47 457.242 219.862 457.242 212.944V132.777C457.242 127.147 453.486 122.208 448.059 120.705C442.636 119.203 436.873 121.503 433.975 126.331L404.633 175.236L375.291 126.331C372.395 121.503 366.631 119.203 361.206 120.705C355.78 122.208 352.023 127.147 352.023 132.777V212.944C352.023 219.861 357.631 225.47 364.55 225.47C371.467 225.47 377.077 219.862 377.077 212.944V178L393.894 206.028C398.672 213.989 410.597 213.991 415.375 206.028L432.192 178V212.944C432.191 219.861 437.798 225.47 444.716 225.47Z" fill="black"/>
<path d="M486.8 120.25C479.883 120.25 474.273 125.858 474.273 132.777V212.944C474.273 219.861 479.881 225.47 486.8 225.47H526.883C533.8 225.47 539.409 219.862 539.409 212.944C539.409 206.027 533.802 200.417 526.883 200.417H499.325V132.777C499.327 125.859 493.717 120.25 486.8 120.25Z" fill="black"/>
<path d="M273.022 733.194H647.135C661.41 733.194 673.022 721.581 673.022 707.306V359.916C673.022 345.641 661.41 334.028 647.135 334.028H273.022C258.747 334.028 247.135 345.641 247.135 359.916V707.306C247.135 721.581 258.747 733.194 273.022 733.194ZM273.022 359.081H647.135C647.596 359.081 647.969 359.455 647.969 359.916V414.195H379.911C372.994 414.195 367.385 419.803 367.385 426.722C367.385 433.639 372.993 439.248 379.911 439.248H647.969V707.306C647.969 707.767 647.596 708.141 647.135 708.141H273.022C272.561 708.141 272.188 707.767 272.188 707.306V439.248H326.468C333.385 439.248 338.994 433.641 338.994 426.722C338.994 419.805 333.386 414.195 326.468 414.195H272.188V359.916C272.186 359.456 272.561 359.081 273.022 359.081Z" fill="black"/>
<path d="M607.05 399.166H620.411C627.328 399.166 632.937 393.558 632.937 386.639C632.937 379.72 627.33 374.113 620.411 374.113H607.05C600.133 374.113 594.523 379.72 594.523 386.639C594.523 393.558 600.133 399.166 607.05 399.166Z" fill="black"/>
<path d="M553.607 399.166H566.968C573.885 399.166 579.494 393.558 579.494 386.639C579.494 379.72 573.886 374.113 566.968 374.113H553.607C546.689 374.113 541.08 379.72 541.08 386.639C541.08 393.558 546.688 399.166 553.607 399.166Z" fill="black"/>
<path d="M500.161 399.166H513.522C520.439 399.166 526.049 393.558 526.049 386.639C526.049 379.72 520.441 374.113 513.522 374.113H500.161C493.244 374.113 487.635 379.72 487.635 386.639C487.635 393.558 493.244 399.166 500.161 399.166Z" fill="black"/>
<path d="M304.248 582.551L357.694 635.997C362.789 641.092 371.389 640.748 376.073 635.278C380.272 630.376 379.969 622.842 375.408 618.283L330.82 573.695L375.408 529.108C380.234 524.283 380.234 516.219 375.408 511.394C370.583 506.569 362.519 506.569 357.694 511.394L304.248 564.839C299.355 569.728 299.355 577.662 304.248 582.551Z" fill="black"/>
<path d="M544.748 635.997C549.573 640.822 557.638 640.822 562.463 635.997L615.908 582.552C620.8 577.66 620.8 569.728 615.908 564.838L562.463 511.392C557.57 506.5 549.639 506.5 544.748 511.392C539.856 516.284 539.856 524.216 544.748 529.106L589.336 573.694L544.748 618.281C539.855 623.174 539.855 631.106 544.748 635.997Z" fill="black"/>
<path d="M413.548 651.242C419.404 654.756 427.223 652.797 430.734 646.947L510.901 513.336C514.46 507.403 512.535 499.709 506.606 496.15C500.67 492.589 492.979 494.516 489.42 500.445L409.253 634.056C405.692 639.989 407.617 647.683 413.548 651.242Z" fill="black"/>
</g>
<defs>
<clipPath id="clip0_1_167">
<rect width="800" height="800" fill="white"/>
</clipPath>
</defs>
</svg>
