<svg width="800" height="800" viewBox="0 0 800 800" fill="none" xmlns="http://www.w3.org/2000/svg">
<g clip-path="url(#clip0_7_1319)">
<path d="M166.132 12.5266C151.373 12.5266 139.41 24.4891 139.41 39.2485V760.752C139.41 775.511 151.373 787.474 166.132 787.474H754.024C768.784 787.474 780.746 775.511 780.746 760.752V132.777L660.496 12.5266H166.132Z" fill="#ECEDEF"/>
<path d="M687.216 132.777H780.744L660.494 12.5266V106.055C660.494 120.811 672.458 132.777 687.216 132.777Z" fill="#D9DCDF"/>
<path d="M620.412 306.472H139.41V65.9702H620.412C627.79 65.9702 633.773 71.953 633.773 79.3312V293.109C633.773 300.489 627.791 306.472 620.412 306.472Z" fill="#C6CACF"/>
<path d="M607.051 279.75H19.1602L126.049 172.859L19.1602 65.9702H607.051V279.75Z" fill="#F4D7AC"/>
<path d="M433.354 346.555C344.804 346.555 273.02 418.339 273.02 506.889C273.02 595.439 344.804 667.223 433.354 667.223C521.904 667.223 593.688 595.439 593.688 506.889C593.688 418.339 521.904 346.555 433.354 346.555ZM433.354 546.973C411.216 546.973 393.271 529.028 393.271 506.891C393.271 484.753 411.216 466.808 433.354 466.808C455.491 466.808 473.437 484.753 473.437 506.891C473.438 529.027 455.491 546.973 433.354 546.973Z" fill="#C6CACF"/>
<path d="M461.697 478.545L546.727 393.516C517.711 364.501 477.629 346.556 433.354 346.556V466.806C444.424 466.806 454.444 471.292 461.697 478.545Z" fill="#D9DCDF"/>
<path d="M405.012 535.233L319.98 620.262C348.996 649.278 389.079 667.223 433.354 667.223V546.973C422.287 546.973 412.265 542.487 405.012 535.233Z" fill="#D9DCDF"/>
<path d="M621.122 559.625L593.689 573.695L553.606 466.806L513.523 573.695L495.155 545.026C476.256 574.315 460.078 605.658 460.078 627.139C460.078 678.794 501.952 720.667 553.606 720.667C605.261 720.667 647.134 678.794 647.134 627.139C647.134 609.198 635.848 584.381 621.122 559.625Z" fill="#FF8C78"/>
<path d="M513.521 653.862C513.521 631.725 553.604 573.695 553.604 573.695C553.604 573.695 593.687 631.725 593.687 653.862C593.687 676 575.742 693.945 553.604 693.945C531.467 693.945 513.521 676 513.521 653.862Z" fill="#FFC44F"/>
<path d="M780.746 666.389C787.663 666.389 793.273 660.783 793.273 653.862V132.777C793.273 129.495 791.924 126.239 789.604 123.919L669.354 3.66875C667.03 1.34688 663.776 0 660.495 0H166.13C144.488 0 126.882 17.6062 126.882 39.2484V53.4453H19.1586C8.23986 53.4453 2.57267 67.0984 10.3024 74.8297L108.335 172.861L10.3039 270.892C2.57424 278.622 8.23986 292.277 19.1602 292.277H126.885V760.753C126.885 782.395 144.491 800.002 166.134 800.002H754.026C775.668 800.002 793.274 782.395 793.274 760.753V707.308C793.274 700.389 787.666 694.781 780.748 694.781C773.831 694.781 768.221 700.388 768.221 707.308V760.753C768.221 768.581 761.852 774.95 754.024 774.95H166.132C158.304 774.95 151.935 768.581 151.935 760.753V292.275H232.937C239.854 292.275 245.463 286.669 245.463 279.748C245.463 272.828 239.855 267.222 232.937 267.222H49.3992L134.905 181.719C139.798 176.825 139.798 168.895 134.905 164.003L49.3992 78.4969H594.524V267.223H286.384C279.466 267.223 273.857 272.83 273.857 279.75C273.857 286.67 279.465 292.277 286.384 292.277H607.052C613.97 292.277 619.579 286.67 619.579 279.75V65.9703C619.579 59.0516 613.971 53.4437 607.052 53.4437H151.937V39.2469C151.937 31.4187 158.305 25.05 166.134 25.05H647.97V106.052C647.97 127.694 665.576 145.3 687.218 145.3H768.22V653.859C768.22 660.781 773.829 666.389 780.746 666.389ZM673.02 106.055V42.7656L750.504 120.25H687.215C679.388 120.25 673.02 113.883 673.02 106.055Z" fill="black"/>
<path d="M285.547 212.944V132.777C285.547 125.858 279.939 120.25 273.021 120.25C266.102 120.25 260.494 125.856 260.494 132.777V212.944C260.494 219.862 266.102 225.47 273.021 225.47C279.939 225.47 285.547 219.862 285.547 212.944Z" fill="black"/>
<path d="M313.105 200.417C306.187 200.417 300.578 206.024 300.578 212.944C300.578 219.863 306.186 225.47 313.105 225.47H353.187C360.105 225.47 365.714 219.864 365.714 212.944V172.859C365.714 165.941 360.106 160.333 353.187 160.333H325.63V145.302H353.187C360.105 145.302 365.714 139.695 365.714 132.775C365.714 125.856 360.106 120.249 353.187 120.249H313.105C306.187 120.249 300.578 125.855 300.578 132.775V172.858C300.578 179.777 306.186 185.384 313.105 185.384H340.663V200.416L313.105 200.417Z" fill="black"/>
<path d="M446.716 225.47C453.633 225.47 459.243 219.864 459.243 212.944V132.777C459.243 125.858 453.635 120.25 446.716 120.25H393.271C386.354 120.25 380.744 125.856 380.744 132.777V212.944C380.744 219.862 386.352 225.47 393.271 225.47H446.716ZM405.797 145.303H434.189V200.417H405.797V145.303Z" fill="black"/>
<path d="M433.355 559.499C462.365 559.499 485.965 535.897 485.965 506.889C485.965 477.88 462.363 454.28 433.355 454.28C404.346 454.28 380.746 477.881 380.746 506.889C380.746 535.899 404.348 559.499 433.355 559.499ZM433.355 479.331C448.551 479.331 460.913 491.694 460.913 506.889C460.913 522.084 448.551 534.447 433.355 534.447C418.16 534.447 405.798 522.084 405.798 506.889C405.798 491.694 418.16 479.331 433.355 479.331Z" fill="black"/>
<path d="M553.605 561.169C549.49 561.169 545.637 563.189 543.299 566.575C536.237 576.801 500.996 629.073 500.996 653.862C500.996 682.872 524.598 706.472 553.605 706.472C582.615 706.472 606.215 682.87 606.215 653.862C606.215 629.073 570.974 576.801 563.912 566.575C561.571 563.191 557.72 561.169 553.605 561.169ZM553.605 681.42C538.41 681.42 526.048 669.058 526.048 653.862C526.048 644.737 538.995 619.68 553.607 596.462C568.218 619.67 581.163 644.723 581.163 653.862C581.162 669.058 568.799 681.42 553.605 681.42Z" fill="black"/>
<path d="M433.355 679.75C442.413 679.75 451.464 679.041 460.366 677.644C478.347 710.705 513.399 733.194 553.605 733.194C612.083 733.194 659.66 685.619 659.66 627.139C659.66 608.812 650.575 584.634 631.886 553.219C628.507 547.537 621.286 545.458 615.404 548.478L600.48 556.133L599.682 554.005C603.999 538.733 606.213 522.909 606.213 506.887C606.213 411.572 528.668 334.028 433.354 334.028C338.039 334.028 260.494 411.573 260.494 506.887C260.494 602.202 338.038 679.75 433.355 679.75ZM616.208 576.223C631.244 603.467 634.608 618.842 634.608 627.139C634.608 671.803 598.271 708.141 553.607 708.141C508.943 708.141 472.605 671.803 472.605 627.139C472.605 617.709 476.838 600.17 495.355 568.559L502.975 580.453C508.436 588.978 521.704 587.556 525.25 578.095L553.607 502.483L581.963 578.095C584.55 584.997 592.835 588.208 599.408 584.842L616.208 576.223ZM433.355 359.081C514.072 359.081 579.872 424.119 581.133 504.537L565.333 462.406C561.358 451.808 545.85 451.808 541.875 462.406L510.574 545.878L505.699 538.269C500.866 530.725 489.488 530.7 484.627 538.234C459.679 576.9 447.55 605.981 447.55 627.137C447.55 636.291 448.716 645.173 450.907 653.652C445.096 654.337 439.229 654.695 433.354 654.695C351.852 654.695 285.546 588.389 285.546 506.887C285.546 425.386 351.852 359.081 433.355 359.081Z" fill="black"/>
</g>
<defs>
<clipPath id="clip0_7_1319">
<rect width="800" height="800" fill="white"/>
</clipPath>
</defs>
</svg>
