<svg width="800" height="800" viewBox="0 0 800 800" fill="none" xmlns="http://www.w3.org/2000/svg">
<path d="M166.131 12.5266C151.372 12.5266 139.409 24.4891 139.409 39.2485V760.752C139.409 775.511 151.372 787.473 166.131 787.473H754.023C768.783 787.473 780.745 775.511 780.745 760.752V132.777L660.495 12.5266H166.131Z" fill="#ECEDEF"/>
<path d="M687.216 132.777H780.744L660.494 12.5266V106.055C660.492 120.811 672.458 132.777 687.216 132.777Z" fill="#D9DCDF"/>
<path d="M620.411 306.472H139.409V65.9703H620.411C627.789 65.9703 633.772 71.9531 633.772 79.3313V293.109C633.772 300.489 627.789 306.472 620.411 306.472Z" fill="#C6CACF"/>
<path d="M607.05 279.75H19.1577L126.047 172.859L19.1577 65.9703H607.05V279.75Z" fill="#529E44"/>
<path d="M613.892 279.78H26L132.889 172.889L26 66H613.892V279.78Z" fill="#FF8179"/>
<path d="M780.745 666.389C787.664 666.389 793.272 660.781 793.272 653.862V132.777C793.272 129.495 791.925 126.241 789.605 123.92L669.355 3.67031C667.031 1.34844 663.777 0 660.494 0H166.131C144.489 0 126.883 17.6062 126.883 39.2484V53.4453H19.1579C8.24069 53.4453 2.57195 67.0984 10.3001 74.8281L108.333 172.861L10.3001 270.892C2.57195 278.622 8.23913 292.275 19.1579 292.275H126.883V760.752C126.883 782.394 144.489 800 166.131 800H754.024C775.666 800 793.272 782.394 793.272 760.752V707.306C793.272 700.389 787.666 694.78 780.745 694.78C773.825 694.78 768.219 700.387 768.219 707.306V760.752C768.219 768.58 761.85 774.948 754.022 774.948H166.131C158.303 774.948 151.934 768.58 151.934 760.752V292.275H232.936C239.855 292.275 245.463 286.667 245.463 279.748C245.463 272.83 239.856 267.222 232.936 267.222H49.3985L134.905 181.716C139.797 176.823 139.797 168.892 134.905 164.002L49.3985 78.4969H594.523V267.223H286.381C279.463 267.223 273.855 272.831 273.855 279.75C273.855 286.669 279.461 292.277 286.381 292.277H607.05C613.969 292.277 619.577 286.669 619.577 279.75V65.9703C619.577 59.0531 613.97 53.4437 607.05 53.4437H151.934V39.2469C151.934 31.4188 158.303 25.05 166.131 25.05H647.969V106.052C647.969 127.694 665.575 145.3 687.217 145.3H768.219V653.859C768.219 660.781 773.825 666.389 780.745 666.389ZM687.217 120.25C679.389 120.25 673.02 113.881 673.02 106.053V42.7656L750.503 120.25H687.217Z" fill="black"/>
<path d="M282.527 200.169C275.608 200.169 270 205.777 270 212.695C270 219.612 275.606 225.222 282.527 225.222H322.609C329.528 225.222 335.136 219.614 335.136 212.695V172.611C335.136 165.694 329.53 160.084 322.609 160.084H295.052V145.053H322.609C329.528 145.053 335.136 139.445 335.136 132.527C335.136 125.609 329.53 120 322.609 120H282.527C275.608 120 270 125.608 270 132.527V172.609C270 179.527 275.606 185.136 282.527 185.136H310.084V200.167L282.527 200.169Z" fill="black"/>
<path d="M313.103 706.472H353.186C360.105 706.472 365.713 700.864 365.713 693.945C365.713 687.028 360.106 681.419 353.186 681.419H313.103C305.275 681.419 298.906 675.05 298.906 667.222V573.694C298.906 570.372 297.588 567.186 295.239 564.838L277.372 546.972L295.238 529.106C297.586 526.758 298.905 523.572 298.905 520.25V426.722C298.905 418.894 305.274 412.525 313.102 412.525H353.184C360.103 412.525 365.711 406.917 365.711 399.998C365.711 393.081 360.105 387.472 353.184 387.472H313.102C291.459 387.472 273.853 405.078 273.853 426.72V515.061L250.799 538.114C245.906 543.006 245.906 550.938 250.799 555.828L273.853 578.881V667.222C273.855 688.866 291.463 706.472 313.103 706.472Z" fill="black"/>
<path d="M566.966 706.472H607.048C628.691 706.472 646.297 688.866 646.297 667.223V578.883L669.351 555.83C674.244 550.937 674.244 543.006 669.351 538.116L646.297 515.062V426.722C646.297 405.08 628.691 387.473 607.048 387.473H566.966C560.047 387.473 554.439 393.081 554.439 400C554.439 406.917 560.045 412.527 566.966 412.527H607.048C614.876 412.527 621.245 418.895 621.245 426.723V520.252C621.245 523.573 622.564 526.759 624.912 529.108L642.778 546.973L624.912 564.839C622.564 567.187 621.245 570.373 621.245 573.695V667.223C621.245 675.052 614.876 681.42 607.048 681.42H566.966C560.047 681.42 554.439 687.028 554.439 693.947C554.441 700.864 560.047 706.472 566.966 706.472Z" fill="black"/>
<path d="M460.077 601.253C453.158 601.253 447.55 606.861 447.55 613.78C447.55 620.697 453.156 626.306 460.077 626.306H461.747C468.666 626.306 474.273 620.698 474.273 613.78C474.273 606.863 468.667 601.253 461.747 601.253H460.077Z" fill="black"/>
<path d="M567.802 613.778C567.802 606.861 562.195 601.251 555.275 601.251H553.605C546.686 601.251 541.078 606.859 541.078 613.778C541.078 620.695 546.684 626.305 553.605 626.305H555.275C562.192 626.305 567.802 620.697 567.802 613.778Z" fill="black"/>
<path d="M368.219 626.305C375.138 626.305 380.745 620.697 380.745 613.778C380.745 606.861 375.139 601.251 368.219 601.251H366.549C359.63 601.251 354.022 606.859 354.022 613.778C354.022 620.695 359.628 626.305 366.549 626.305H368.219Z" fill="black"/>
<path d="M200.248 200.167H173.527C166.609 200.167 161 205.775 161 212.694C161 219.611 166.608 225.22 173.527 225.22H200.248C221.891 225.22 239.497 207.614 239.497 185.972V145.053H240.331C247.248 145.053 252.858 139.445 252.858 132.527C252.858 125.609 247.25 120 240.331 120H200.248C193.331 120 187.722 125.608 187.722 132.527C187.722 139.444 193.33 145.053 200.248 145.053H214.445V185.972C214.445 193.8 208.077 200.167 200.248 200.167Z" fill="black"/>
<path d="M427.972 225.22C434.889 225.22 440.498 219.612 440.498 212.694V132.527C440.498 125.609 434.891 120 427.972 120H374.527C367.609 120 362 125.608 362 132.527V212.694C362 219.611 367.608 225.22 374.527 225.22H427.972ZM387.053 145.053H415.445V200.167H387.053V145.053Z" fill="black"/>
<path d="M522.798 137.622L523.889 184.523L490.455 127.65C490.455 127.649 490.454 127.648 490.453 127.646C488.062 123.525 484.17 121.5 479.079 121.5C475.412 121.5 472.412 122.606 470.37 125.041C468.371 127.426 467.5 130.841 467.5 135.021C467.5 143.669 467.586 152.286 467.671 160.89C467.841 178.052 468.011 195.162 467.501 212.369L467.5 212.391V212.413C467.5 217.407 468.378 221.422 470.365 224.221C472.418 227.116 475.503 228.5 479.351 228.5C481.25 228.5 482.938 228.166 484.391 227.425C485.857 226.677 487 225.557 487.858 224.123C489.53 221.325 490.113 217.329 490.113 212.415C490.142 204.099 490.244 191.543 490.339 181.064C490.386 175.824 490.432 171.104 490.466 167.694C490.466 167.622 490.467 167.551 490.468 167.481L523.421 222.236L523.425 222.242L523.428 222.248C525.943 226.338 529.537 228.5 534.104 228.5C537.815 228.5 540.848 227.384 542.914 224.926C544.936 222.52 545.818 219.073 545.819 214.851C545.819 214.848 545.819 214.846 545.819 214.844L546.5 137.6L546.5 137.6V137.587C546.5 132.593 545.622 128.578 543.635 125.779C541.582 122.884 538.497 121.5 534.649 121.5C530.8 121.5 527.716 122.884 525.662 125.779C523.675 128.578 522.797 132.593 522.797 137.587V137.604L522.798 137.622Z" fill="black" stroke="black" stroke-width="3"/>
</svg>
