<svg width="800" height="800" viewBox="0 0 800 800" fill="none" xmlns="http://www.w3.org/2000/svg">
<g clip-path="url(#clip0_7_1149)">
<path d="M166.132 12.5266C151.373 12.5266 139.41 24.4891 139.41 39.2484V760.752C139.41 775.511 151.373 787.473 166.132 787.473H754.024C768.784 787.473 780.746 775.511 780.746 760.752V132.777L660.496 12.5266H166.132Z" fill="#ECEDEF"/>
<path d="M687.216 132.777H780.744L660.494 12.5266V106.055C660.494 120.811 672.458 132.777 687.216 132.777Z" fill="#D9DCDF"/>
<path d="M620.412 306.472H139.41V65.9703H620.412C627.79 65.9703 633.773 71.9531 633.773 79.3312V293.109C633.773 300.489 627.791 306.472 620.412 306.472Z" fill="#C6CACF"/>
<path d="M607.051 279.75H19.1602L126.049 172.859L19.1602 65.9703H607.051V279.75Z" fill="#A8E5FF"/>
<path d="M313.105 667.223L433.355 400H486.801L607.051 667.223H540.245L500.162 587.056H419.995L379.912 667.223H313.105ZM486.801 533.611L460.079 466.805L433.357 533.611H486.801Z" fill="#FFC44F"/>
<path d="M433.355 400L313.105 667.223H344.104L461.682 400H433.355Z" fill="#F79F4D"/>
<path d="M780.746 666.389C787.663 666.389 793.273 660.783 793.273 653.862V132.777C793.273 129.495 791.924 126.239 789.604 123.919L669.354 3.66875C667.029 1.34844 663.777 0 660.495 0H166.13C144.488 0 126.882 17.6062 126.882 39.2484V53.4453H19.1586C8.23986 53.4453 2.57267 67.0984 10.3024 74.8297L108.335 172.861L10.3039 270.892C2.57424 278.622 8.23986 292.277 19.1602 292.277H126.885V760.753C126.885 782.395 144.491 800.002 166.134 800.002H754.026C775.668 800.002 793.274 782.395 793.274 760.753V707.308C793.274 700.389 787.666 694.781 780.748 694.781C773.831 694.781 768.221 700.388 768.221 707.308V760.753C768.221 768.581 761.852 774.95 754.024 774.95H166.132C158.304 774.95 151.935 768.581 151.935 760.753V292.275H232.937C239.854 292.275 245.463 286.669 245.463 279.748C245.463 272.828 239.855 267.222 232.937 267.222H49.3992L134.905 181.719C139.798 176.825 139.798 168.895 134.905 164.003L49.3992 78.4969H594.524V267.223H286.384C279.466 267.223 273.857 272.83 273.857 279.75C273.857 286.67 279.465 292.277 286.384 292.277H607.052C613.97 292.277 619.579 286.67 619.579 279.75V65.9703C619.579 59.0516 613.971 53.4437 607.052 53.4437H151.937V39.2469C151.937 31.4187 158.305 25.05 166.134 25.05H647.97V106.052C647.97 127.694 665.576 145.3 687.218 145.3H768.22V653.859C768.22 660.781 773.829 666.389 780.746 666.389ZM673.02 106.055V42.7656L750.504 120.25H687.215C679.388 120.25 673.02 113.883 673.02 106.055Z" fill="black"/>
<path d="M312.268 212.944V132.777C312.268 125.858 306.66 120.25 299.741 120.25H246.296C239.379 120.25 233.77 125.856 233.77 132.777V212.944C233.77 219.862 239.377 225.47 246.296 225.47H299.741C306.66 225.47 312.268 219.862 312.268 212.944ZM287.216 200.417H258.824V145.303H287.216V200.417Z" fill="black"/>
<path d="M366.549 225.47C373.466 225.47 379.076 219.864 379.076 212.944V145.303H393.273C400.19 145.303 405.799 139.697 405.799 132.777C405.799 125.858 400.191 120.25 393.273 120.25H339.827C332.91 120.25 327.301 125.856 327.301 132.777C327.301 139.695 332.909 145.303 339.827 145.303H354.024V212.944C354.024 219.862 359.632 225.47 366.549 225.47Z" fill="black"/>
<path d="M473.439 145.303C480.357 145.303 485.966 139.697 485.966 132.777C485.966 125.858 480.358 120.25 473.439 120.25H433.357C426.439 120.25 420.83 125.856 420.83 132.777V212.944C420.83 219.862 426.438 225.47 433.357 225.47C440.274 225.47 445.883 219.864 445.883 212.944V185.386H460.08C466.997 185.386 472.607 179.78 472.607 172.859C472.607 165.941 466.999 160.333 460.08 160.333H445.883V145.302H473.439V145.303Z" fill="black"/>
<path d="M300.855 664.591C299.166 672.403 305.424 679.889 313.374 679.748H379.91C384.655 679.748 388.993 677.067 391.113 672.823L427.735 599.581H492.418L529.04 672.823C531.16 677.066 535.498 679.748 540.243 679.748H607.049C615.971 679.748 622.138 670.234 618.471 662.081L498.221 394.858C496.199 390.364 491.727 387.472 486.799 387.472H433.354C428.426 387.472 423.954 390.361 421.932 394.858L397.882 448.303C395.043 454.611 397.855 462.028 404.165 464.867C410.471 467.7 417.888 464.892 420.727 458.584L441.454 412.525H478.699L587.676 654.697H547.985L511.363 581.455C509.243 577.213 504.905 574.53 500.16 574.53H419.993C415.248 574.53 410.91 577.211 408.79 581.455L372.168 654.697H332.476L404.693 494.214C407.532 487.906 404.719 480.489 398.41 477.65C392.101 474.811 384.687 477.625 381.848 483.933L301.791 661.837C301.377 662.705 301.06 663.628 300.855 664.591Z" fill="black"/>
<path d="M433.355 546.138H486.801C495.502 546.138 501.668 537.053 498.43 528.959L471.708 462.153C467.601 451.878 452.557 451.878 448.449 462.153L421.727 528.959C418.488 537.053 424.654 546.138 433.355 546.138ZM460.077 500.533L468.297 521.086H451.855L460.077 500.533Z" fill="black"/>
<path d="M526.882 334.03C519.965 334.03 514.355 339.636 514.355 346.556V400C514.355 406.919 519.963 412.527 526.882 412.527H580.327C587.245 412.527 592.854 406.92 592.854 400C592.854 393.081 587.246 387.473 580.327 387.473H539.409V346.555C539.409 339.636 533.801 334.03 526.882 334.03Z" fill="black"/>
<path d="M393.273 412.527C400.19 412.527 405.799 406.92 405.799 400V346.555C405.799 339.636 400.191 334.028 393.273 334.028C386.354 334.028 380.746 339.634 380.746 346.555V387.473H339.827C332.91 387.473 327.301 393.08 327.301 400C327.301 406.919 332.909 412.527 339.827 412.527H393.273Z" fill="black"/>
<path d="M647.134 654.697C640.217 654.697 634.607 660.303 634.607 667.223V720.669C634.607 727.588 640.215 733.195 647.134 733.195C654.051 733.195 659.661 727.589 659.661 720.669V679.75H700.579C707.497 679.75 713.106 674.144 713.106 667.223C713.106 660.303 707.498 654.697 700.579 654.697H647.134Z" fill="black"/>
<path d="M273.021 733.194C279.938 733.194 285.547 727.587 285.547 720.667V667.222C285.547 660.303 279.939 654.695 273.021 654.695H219.575C212.658 654.695 207.049 660.302 207.049 667.222C207.049 674.142 212.657 679.748 219.575 679.748H260.494V720.667C260.496 727.587 266.104 733.194 273.021 733.194Z" fill="black"/>
</g>
<defs>
<clipPath id="clip0_7_1149">
<rect width="800" height="800" fill="white"/>
</clipPath>
</defs>
</svg>
