<svg width="800" height="800" viewBox="0 0 800 800" fill="none" xmlns="http://www.w3.org/2000/svg">
<g clip-path="url(#clip0_8_1337)">
<path d="M166.132 12.5266C151.373 12.5266 139.41 24.4891 139.41 39.2485V760.752C139.41 775.511 151.373 787.473 166.132 787.473H754.024C768.784 787.473 780.746 775.511 780.746 760.752V132.777L660.496 12.5266H166.132Z" fill="#ECEDEF"/>
<path d="M687.218 132.777H780.746L660.496 12.5266V106.055C660.496 120.811 672.459 132.777 687.218 132.777Z" fill="#D9DCDF"/>
<path d="M620.412 306.472H139.41V65.9703H620.412C627.79 65.9703 633.773 71.9531 633.773 79.3313V293.109C633.774 300.489 627.791 306.472 620.412 306.472Z" fill="#C6CACF"/>
<path d="M607.051 279.75H19.1602L126.049 172.859L19.1602 65.9703H607.051V279.75Z" fill="#3C9FE8"/>
<path d="M530.159 145.303C537.078 145.303 542.686 139.697 542.686 132.777C542.686 125.858 537.08 120.25 530.159 120.25H476.714C469.795 120.25 464.188 125.856 464.188 132.777V212.944C464.188 219.862 469.794 225.47 476.714 225.47H530.159C537.078 225.47 542.686 219.864 542.686 212.944V172.859C542.686 165.941 537.08 160.333 530.159 160.333H516.798C509.88 160.333 504.272 165.939 504.272 172.859C504.272 179.778 509.878 185.386 516.798 185.386H517.633V200.417H489.241V145.303H530.159Z" fill="black"/>
<path d="M580.328 560.334H339.826L460.078 346.555L580.328 560.334Z" fill="#FFC44F"/>
<path d="M384.686 480.584L339.826 560.334H580.328L535.47 480.584H384.686Z" fill="#F79F4D"/>
<path d="M359.868 720.669C415.212 720.669 460.077 675.803 460.077 620.459C460.077 565.115 415.212 520.25 359.868 520.25C304.523 520.25 259.658 565.115 259.658 620.459C259.658 675.803 304.523 720.669 359.868 720.669Z" fill="#FF8C78"/>
<path d="M399.952 693.945C344.609 693.945 299.743 649.08 299.743 593.736C299.743 567.683 309.69 543.958 325.988 526.137C287.321 540.03 259.66 577.008 259.66 620.459C259.66 675.803 304.526 720.669 359.87 720.669C389.16 720.669 415.512 708.095 433.834 688.059C423.249 691.861 411.846 693.945 399.952 693.945Z" fill="#DB6B5E"/>
<path d="M660.493 506.889H446.715V720.667H660.493V506.889Z" fill="#8AC451"/>
<path d="M486.799 680.584V506.889H446.715V720.669H660.495V680.584H486.799Z" fill="#529E44"/>
<path d="M780.745 666.389C787.662 666.389 793.271 660.781 793.271 653.862V132.777C793.271 129.495 791.923 126.239 789.602 123.92L669.352 3.67031C667.034 1.35156 663.773 0 660.493 0H166.129C144.488 0 126.88 17.6062 126.88 39.2484V53.4453H19.157C8.23984 53.4453 2.56953 67.0984 10.3008 74.8281L108.334 172.861L10.3023 270.894C2.57265 278.623 8.23984 292.277 19.1586 292.277H126.884V760.753C126.884 782.395 144.49 800.002 166.132 800.002H754.024C775.666 800.002 793.273 782.395 793.273 760.753V707.308C793.273 700.391 787.665 694.781 780.746 694.781C773.829 694.781 768.22 700.389 768.22 707.308V760.753C768.22 768.581 761.851 774.95 754.023 774.95H166.13C158.302 774.95 151.934 768.581 151.934 760.753V292.275H232.935C239.852 292.275 245.462 286.667 245.462 279.748C245.462 272.83 239.854 267.222 232.935 267.222H49.3977L134.904 181.716C139.796 176.823 139.796 168.892 134.904 164.002L49.3977 78.4969H594.523V267.223H286.382C279.465 267.223 273.855 272.831 273.855 279.75C273.855 286.669 279.463 292.277 286.382 292.277H607.051C613.968 292.277 619.577 286.669 619.577 279.75V65.9703C619.577 59.0531 613.97 53.4437 607.051 53.4437H151.935V39.2469C151.935 31.4187 158.304 25.05 166.132 25.05H647.968V106.052C647.968 127.694 665.574 145.3 687.216 145.3H768.218V653.859C768.218 660.781 773.827 666.389 780.745 666.389ZM673.018 106.055V42.7656L711.76 81.5078L750.502 120.25H687.213C679.387 120.25 673.018 113.883 673.018 106.055Z" fill="black"/>
<path d="M278.827 200.417C271.909 200.417 266.301 206.025 266.301 212.944C266.301 219.861 271.907 225.47 278.827 225.47H318.91C325.829 225.47 331.437 219.862 331.437 212.944V172.859C331.437 165.942 325.83 160.333 318.91 160.333H291.352V145.302H318.91C325.829 145.302 331.437 139.694 331.437 132.775C331.437 125.858 325.83 120.248 318.91 120.248H278.827C271.909 120.248 266.301 125.856 266.301 132.775V172.858C266.301 179.775 271.907 185.384 278.827 185.384H306.385V200.416L278.827 200.417Z" fill="black"/>
<path d="M395.715 226.47C401.107 226.47 405.895 223.02 407.598 217.906L434.32 137.739C436.478 131.264 432.873 124.053 426.398 121.894C419.921 119.734 412.71 123.339 410.553 129.817L395.713 174.333L380.874 129.817C378.685 123.253 371.595 119.705 365.029 121.894C358.465 124.081 354.92 131.175 357.107 137.739L383.829 217.906C385.535 223.019 390.323 226.47 395.715 226.47Z" fill="black"/>
<path d="M446.716 733.194H660.494C667.411 733.194 673.02 727.586 673.02 720.667V506.889C673.02 499.972 667.413 494.362 660.494 494.362H557.589L470.992 340.414C466.294 332.058 453.856 332.058 449.158 340.414L355.113 507.608C355.069 507.684 355.038 507.764 354.995 507.844C336.903 508.625 319.219 513.734 303.578 522.764C297.587 526.223 295.533 533.884 298.992 539.875C302.452 545.867 310.113 547.917 316.103 544.461C329.344 536.817 344.477 532.777 359.867 532.777C387.302 532.777 412.644 545.262 429.4 567.033C430.705 568.73 432.364 569.986 434.189 570.805V668.492C433.077 669.278 432.069 670.248 431.231 671.42C414.777 694.416 388.1 708.144 359.867 708.144C311.519 708.144 272.184 668.809 272.184 620.461C272.184 601.311 278.244 583.122 289.708 567.858C293.863 562.327 292.747 554.473 287.216 550.32C281.684 546.166 273.833 547.281 269.678 552.812C254.93 572.448 247.133 595.841 247.133 620.459C247.133 682.622 297.705 733.194 359.867 733.194C387.423 733.194 413.817 723.017 434.189 705.187V720.669C434.191 727.586 439.798 733.194 446.716 733.194ZM647.969 708.142H459.242V519.416H647.969V708.142ZM382.497 510.022L460.077 372.103L528.848 494.362H446.716C439.798 494.362 434.189 499.97 434.189 506.889V535.702C419.458 522.719 401.719 513.911 382.497 510.022Z" fill="black"/>
</g>
<defs>
<clipPath id="clip0_8_1337">
<rect width="800" height="800" fill="white"/>
</clipPath>
</defs>
</svg>
