<svg width="800" height="800" viewBox="0 0 800 800" fill="none" xmlns="http://www.w3.org/2000/svg">
<g clip-path="url(#clip0_17_103)">
<path d="M166.132 12.5264C151.373 12.5264 139.41 24.4889 139.41 39.2482V760.751C139.41 775.511 151.373 787.473 166.132 787.473H754.024C768.784 787.473 780.746 775.511 780.746 760.751V132.776L660.496 12.5264H166.132Z" fill="#ECEDEF"/>
<path d="M687.218 132.776H780.746L660.496 12.5264V106.054C660.496 120.811 672.459 132.776 687.218 132.776Z" fill="#D9DCDF"/>
<path d="M620.412 306.472H139.41V65.9702H620.412C627.79 65.9702 633.773 71.953 633.773 79.3312V293.109C633.774 300.489 627.791 306.472 620.412 306.472Z" fill="#C6CACF"/>
<path d="M607.051 279.75H19.1602L126.049 172.859L19.1602 65.9702H607.051V279.75Z" fill="#D6D6D6"/>
<path d="M513.521 720.669H273.021C265.643 720.669 259.66 714.686 259.66 707.308V359.917C259.66 352.539 265.643 346.556 273.021 346.556H513.523C520.901 346.556 526.884 352.539 526.884 359.917V707.308C526.882 714.686 520.901 720.669 513.521 720.669Z" fill="#D0D0D0"/>
<path d="M286.382 693.945V346.555H273.021C265.643 346.555 259.66 352.537 259.66 359.916V707.306C259.66 714.684 265.643 720.667 273.021 720.667H513.523C520.901 720.667 526.884 714.684 526.884 707.306V693.945H286.382Z" fill="#B0B0B0"/>
<path d="M448.732 652.241L410.941 614.45L618.791 406.598C624.009 401.381 632.469 401.381 637.687 406.598L656.582 425.494C661.799 430.711 661.799 439.17 656.582 444.389L448.732 652.241Z" fill="#9BCE2E"/>
<path d="M656.582 444.391C661.799 439.173 661.799 430.714 656.582 425.495L637.686 406.6C632.469 401.383 624.008 401.383 618.791 406.6L589.916 435.475L627.707 473.266L656.582 444.391Z" fill="#939393"/>
<path d="M382.598 680.584L410.941 614.45L448.732 652.241L382.598 680.584Z" fill="#FFC44F"/>
<path d="M780.745 666.389C787.662 666.389 793.271 660.781 793.271 653.862V132.777C793.271 129.495 791.923 126.239 789.602 123.92L669.352 3.67031C667.034 1.35156 663.773 0 660.493 0H166.129C144.488 0 126.88 17.6062 126.88 39.2484V53.4453H19.157C8.23984 53.4453 2.56953 67.0984 10.3008 74.8281L108.334 172.861L10.3023 270.894C2.57265 278.623 8.23984 292.277 19.1586 292.277H126.884V760.753C126.884 782.395 144.49 800.002 166.132 800.002H754.024C775.666 800.002 793.273 782.395 793.273 760.753V707.308C793.273 700.391 787.665 694.781 780.746 694.781C773.829 694.781 768.22 700.389 768.22 707.308V760.753C768.22 768.581 761.851 774.95 754.023 774.95H166.13C158.302 774.95 151.934 768.581 151.934 760.753V292.275H232.935C239.852 292.275 245.462 286.667 245.462 279.748C245.462 272.83 239.854 267.222 232.935 267.222H49.3977L134.904 181.716C139.796 176.823 139.796 168.892 134.904 164.002L49.3977 78.4969H594.523V267.223H286.382C279.465 267.223 273.855 272.831 273.855 279.75C273.855 286.669 279.463 292.277 286.382 292.277H607.051C613.968 292.277 619.577 286.669 619.577 279.75V65.9703C619.577 59.0531 613.97 53.4437 607.051 53.4437H151.935V39.2469C151.935 31.4188 158.304 25.05 166.132 25.05H647.968V106.052C647.968 127.694 665.574 145.3 687.216 145.3H768.218V653.859C768.218 660.781 773.827 666.389 780.745 666.389ZM673.018 106.055V42.7656L750.502 120.25H687.213C679.387 120.25 673.018 113.883 673.018 106.055Z" fill="black"/>
<path d="M215.022 225.47C221.939 225.47 227.548 219.862 227.548 212.944V145.303H241.745C248.663 145.303 254.272 139.695 254.272 132.777C254.272 125.859 248.664 120.25 241.745 120.25H188.3C181.383 120.25 175.773 125.858 175.773 132.777C175.773 139.694 181.381 145.303 188.3 145.303H202.497V212.944C202.495 219.861 208.103 225.47 215.022 225.47Z" fill="black"/>
<path d="M501.079 225.47C507.996 225.47 513.605 219.862 513.605 212.944V145.303H527.802C534.719 145.303 540.329 139.695 540.329 132.777C540.329 125.859 534.721 120.25 527.802 120.25H474.357C467.439 120.25 461.83 125.858 461.83 132.777C461.83 139.694 467.438 145.303 474.357 145.303H488.554V212.944C488.552 219.861 494.16 225.47 501.079 225.47Z" fill="black"/>
<path d="M373.88 223.366C379.563 227.155 387.466 225.569 391.249 219.892L407.549 195.441L423.849 219.892C427.935 226.02 436.693 227.269 442.338 222.528C447.162 218.48 448.183 211.231 444.693 205.995L422.602 172.859L444.693 139.723C448.53 133.969 446.976 126.191 441.219 122.355C435.465 118.517 427.687 120.072 423.851 125.828L407.551 150.28L391.251 125.828C387.413 120.073 379.637 118.517 373.882 122.355C368.126 126.191 366.569 133.969 370.408 139.723L392.499 172.859L370.408 205.995C366.568 211.752 368.122 219.53 373.88 223.366Z" fill="black"/>
<path d="M273.022 733.194H513.523C527.798 733.194 539.411 721.581 539.411 707.306V579.277L637.089 481.598C637.092 481.595 637.094 481.594 637.097 481.591C637.1 481.587 637.102 481.586 637.105 481.583L665.439 453.248C675.419 443.27 675.42 426.616 665.439 416.639L646.544 397.744C636.452 387.653 620.028 387.653 609.934 397.744L539.411 468.267V359.919C539.411 345.644 527.798 334.031 513.523 334.031H273.022C258.747 334.031 247.134 345.644 247.134 359.919V426.725C247.134 433.642 252.742 439.252 259.661 439.252C266.58 439.252 272.188 433.644 272.188 426.725V359.919C272.188 359.458 272.561 359.084 273.022 359.084H513.523C513.984 359.084 514.358 359.458 514.358 359.919V493.32L446.506 561.172H326.466C319.548 561.172 313.939 566.78 313.939 573.698C313.939 580.616 319.547 586.225 326.466 586.225H421.453L402.081 605.597C402.059 605.619 402.041 605.644 402.019 605.666C401.925 605.761 401.842 605.864 401.752 605.961C401.516 606.217 401.288 606.475 401.075 606.745C400.983 606.862 400.9 606.983 400.813 607.103C400.611 607.381 400.42 607.664 400.242 607.955C400.172 608.07 400.102 608.186 400.034 608.303C399.842 608.644 399.667 608.992 399.508 609.347C399.481 609.406 399.445 609.461 399.42 609.52L399.339 609.712C399.334 609.727 399.328 609.739 399.32 609.753L385.784 641.339H326.461C319.544 641.339 313.934 646.947 313.934 653.866C313.934 660.783 319.542 666.392 326.461 666.392H375.047L371.077 675.653C366.722 685.813 377.336 696.467 387.523 692.1L453.428 663.856C453.439 663.852 453.45 663.847 453.461 663.842L453.659 663.756C453.722 663.73 453.777 663.692 453.838 663.666C454.188 663.509 454.534 663.334 454.872 663.145C454.992 663.077 455.109 663.006 455.228 662.934C455.517 662.759 455.798 662.569 456.075 662.369C456.195 662.28 456.319 662.195 456.436 662.103C456.705 661.892 456.964 661.666 457.217 661.428C457.316 661.338 457.419 661.255 457.514 661.159C457.536 661.137 457.561 661.119 457.583 661.097L514.353 604.327V707.308C514.353 707.769 513.98 708.142 513.519 708.142H273.02C272.559 708.142 272.186 707.769 272.186 707.308V466.806C272.186 459.889 266.578 454.28 259.659 454.28C252.741 454.28 247.133 459.888 247.133 466.806V707.308C247.134 721.581 258.747 733.194 273.022 733.194ZM448.731 634.527L428.655 614.45L590.447 452.656L610.523 472.733L448.731 634.527ZM627.647 415.458C627.972 415.133 628.502 415.133 628.83 415.458L647.725 434.353C647.784 434.412 647.969 434.597 647.969 434.942C647.969 435.288 647.784 435.472 647.725 435.533L628.239 455.019L608.163 434.942L627.647 415.458ZM406.445 656.734L415.166 636.389L426.792 648.016L406.445 656.734Z" fill="black"/>
<path d="M326.466 425.888H460.079C466.996 425.888 472.605 420.28 472.605 413.361C472.605 406.444 466.997 400.834 460.079 400.834H326.466C319.549 400.834 313.939 406.442 313.939 413.361C313.939 420.28 319.549 425.888 326.466 425.888Z" fill="black"/>
<path d="M326.466 506.055H460.079C466.996 506.055 472.605 500.447 472.605 493.528C472.605 486.611 466.997 481.001 460.079 481.001H326.466C319.549 481.001 313.939 486.609 313.939 493.528C313.939 500.445 319.549 506.055 326.466 506.055Z" fill="black"/>
<path d="M336.393 144.239C343.355 144.239 349 138.589 349 131.619C349 124.651 343.356 119 336.393 119H282.607C275.645 119 270 124.649 270 131.619V212.381C270 219.349 275.644 225 282.607 225H336.393C343.355 225 349 219.351 349 212.381C349 205.412 343.356 199.761 336.393 199.761H295.213V184.619H309.501C316.462 184.619 322.107 178.969 322.107 171.999C322.107 165.031 316.464 159.38 309.501 159.38H295.213V144.237H336.393V144.239Z" fill="black"/>
</g>
<defs>
<clipPath id="clip0_17_103">
<rect width="800" height="800" fill="white"/>
</clipPath>
</defs>
</svg>
