<svg width="800" height="800" viewBox="0 0 800 800" fill="none" xmlns="http://www.w3.org/2000/svg">
<path d="M166.131 12.5266C151.372 12.5266 139.409 24.4891 139.409 39.2485V760.752C139.409 775.511 151.372 787.474 166.131 787.474H754.023C768.783 787.474 780.745 775.511 780.745 760.752V132.777L660.495 12.5266H166.131Z" fill="#ECEDEF"/>
<path d="M687.216 132.777H780.744L660.494 12.5266V106.055C660.492 120.811 672.458 132.777 687.216 132.777Z" fill="#D9DCDF"/>
<path d="M620.411 306.472H139.409V65.9703H620.411C627.789 65.9703 633.772 71.9531 633.772 79.3313V293.109C633.772 300.489 627.789 306.472 620.411 306.472Z" fill="#C6CACF"/>
<path d="M607.05 279.75H19.1577L126.047 172.859L19.1577 65.9703H607.05V279.75Z" fill="#529E44"/>
<path d="M613.892 279.78H26L132.889 172.889L26 66H613.892V279.78Z" fill="#B4B4B4"/>
<path d="M780.745 666.389C787.664 666.389 793.272 660.781 793.272 653.862V132.777C793.272 129.495 791.925 126.241 789.604 123.92L669.355 3.67031C667.031 1.34844 663.776 0 660.494 0H166.131C144.489 0 126.883 17.6062 126.883 39.2484V53.4453H19.1576C8.24045 53.4453 2.5717 67.0984 10.2998 74.8281L108.333 172.861L10.2998 270.892C2.5717 278.622 8.23889 292.275 19.1576 292.275H126.883V760.752C126.883 782.394 144.489 800 166.131 800H754.023C775.665 800 793.272 782.394 793.272 760.752V707.306C793.272 700.389 787.665 694.78 780.745 694.78C773.825 694.78 768.219 700.387 768.219 707.306V760.752C768.219 768.58 761.85 774.948 754.022 774.948H166.131C158.303 774.948 151.934 768.58 151.934 760.752V292.275H232.936C239.855 292.275 245.462 286.667 245.462 279.748C245.462 272.83 239.856 267.222 232.936 267.222H49.3983L134.905 181.716C139.797 176.823 139.797 168.892 134.905 164.002L49.3983 78.4969H594.523V267.223H286.381C279.462 267.223 273.855 272.831 273.855 279.75C273.855 286.669 279.461 292.277 286.381 292.277H607.05C613.969 292.277 619.576 286.669 619.576 279.75V65.9703C619.576 59.0531 613.97 53.4437 607.05 53.4437H151.934V39.2469C151.934 31.4187 158.303 25.05 166.131 25.05H647.969V106.052C647.969 127.694 665.575 145.3 687.217 145.3H768.219V653.859C768.219 660.781 773.825 666.389 780.745 666.389ZM687.217 120.25C679.389 120.25 673.02 113.881 673.02 106.053V42.7656L750.503 120.25H687.217Z" fill="black"/>
<path d="M485.275 352C492.248 352 499.801 353.585 507.936 356.755C516.361 359.925 524.35 363.96 531.904 368.859H531.468C539.021 374.335 544.832 381.539 548.899 390.473C552.966 399.119 555 409.206 555 420.733V441.483C555 468.285 541.927 490.043 515.78 506.758C489.633 523.185 476.56 539.9 476.56 556.903V560.793C476.56 573.186 467.844 579.67 450.413 580.246C433.563 580.246 425.138 573.762 425.138 560.793V557.767C425.138 541.341 428.479 527.363 435.161 515.836C442.133 504.308 451.72 495.518 463.922 489.466C476.705 483.703 486.437 476.498 493.119 467.852C500.092 458.918 503.578 448.976 503.578 438.025V424.624C503.578 417.419 501.254 410.791 496.605 404.739C492.248 398.687 484.694 395.661 473.945 395.661H445.619C434.87 395.661 427.317 398.687 422.959 404.739C418.601 410.791 416.422 417.419 416.422 424.624V441.915C416.422 455.46 407.706 462.233 390.275 462.233C373.425 462.233 365 455.46 365 441.915V420.733C365 397.39 372.699 380.098 388.096 368.859H387.661C395.214 363.96 403.058 359.925 411.193 356.755C419.327 353.585 427.171 352 434.725 352H485.275ZM486.147 632.553C486.147 642.639 482.661 651.141 475.688 658.057C469.006 664.686 460.726 668 450.849 668C440.971 668 432.546 664.686 425.573 658.057C418.891 651.141 415.55 642.639 415.55 632.553C415.55 622.754 418.891 614.541 425.573 607.912C432.546 601.284 440.971 597.97 450.849 597.97C460.726 597.97 469.006 601.284 475.688 607.912C482.661 614.541 486.147 622.754 486.147 632.553Z" fill="black"/>
</svg>
