<svg width="512" height="512" viewBox="0 0 512 512" fill="none" xmlns="http://www.w3.org/2000/svg">
<path d="M106.325 8.017C96.8787 8.017 89.2227 15.673 89.2227 25.119V486.881C89.2227 496.327 96.8787 503.983 106.325 503.983H482.576C492.022 503.983 499.678 496.327 499.678 486.881V84.977L422.718 8.017H106.325Z" fill="#ECEDEF"/>
<path d="M439.817 84.977H499.675L422.715 8.017V67.875C422.714 77.319 430.372 84.977 439.817 84.977Z" fill="#D9DCDF"/>
<path d="M397.064 196.142H89.2227V42.221H397.064C401.786 42.221 405.615 46.05 405.615 50.772V187.59C405.615 192.313 401.786 196.142 397.064 196.142Z" fill="#C6CACF"/>
<path d="M388.513 179.04H12.2617L80.6707 110.63L12.2617 42.221H388.513V179.04Z" fill="#56E1FF"/>
<path d="M217.489 375.716H191.836C182.39 375.716 174.734 368.06 174.734 358.614V324.409C174.734 314.963 182.39 307.307 191.836 307.307H217.489V375.716Z" fill="#FFC44F"/>
<path d="M217.489 307.307H200.387V375.716H217.489V307.307Z" fill="#F79F4D"/>
<path d="M302.999 427.023L217.488 375.716V307.307L302.999 256V427.023Z" fill="#FFC44F"/>
<path d="M499.679 426.489C504.107 426.489 507.696 422.9 507.696 418.472V84.977C507.696 82.877 506.834 80.794 505.349 79.309L428.389 2.349C426.902 0.863 424.819 0 422.718 0H106.326C92.4749 0 81.2069 11.268 81.2069 25.119V34.205H12.2629C5.27592 34.205 1.64792 42.943 6.59392 47.89L69.3349 110.631L6.59392 173.371C1.64792 178.318 5.27492 187.056 12.2629 187.056H81.2069V486.881C81.2069 500.732 92.4749 512 106.326 512H482.577C496.428 512 507.696 500.732 507.696 486.881V452.676C507.696 448.249 504.108 444.659 499.679 444.659C495.25 444.659 491.662 448.248 491.662 452.676V486.881C491.662 491.891 487.586 495.967 482.576 495.967H106.326C101.316 495.967 97.2399 491.891 97.2399 486.881V187.056H149.081C153.509 187.056 157.098 183.467 157.098 179.039C157.098 174.611 153.51 171.022 149.081 171.022H31.6169L86.3409 116.298C89.4719 113.167 89.4719 108.091 86.3409 104.961L31.6169 50.238H380.497V171.023H183.286C178.858 171.023 175.269 174.612 175.269 179.04C175.269 183.468 178.857 187.057 183.286 187.057H388.514C392.942 187.057 396.531 183.468 396.531 179.04V42.221C396.531 37.794 392.943 34.204 388.514 34.204H97.2399V25.118C97.2399 20.108 101.316 16.032 106.326 16.032H414.702V67.873C414.702 81.724 425.97 92.992 439.821 92.992H491.662V418.47C491.662 422.9 495.25 426.489 499.679 426.489ZM439.821 76.96C434.811 76.96 430.735 72.884 430.735 67.874V27.37L480.324 76.96H439.821Z" fill="black"/>
<path d="M174.733 144.301C178.146 144.301 181.262 142.057 182.34 138.82L199.442 87.513C200.842 83.312 198.573 78.773 194.372 77.372C190.17 75.972 185.632 78.241 184.231 82.443L173.249 115.388L164.803 98.494C161.906 92.701 153.359 92.701 150.463 98.494L142.017 115.388L131.035 82.443C129.634 78.242 125.096 75.971 120.894 77.372C116.693 78.772 114.424 83.312 115.824 87.513L132.926 138.82C133.951 141.896 136.729 144.052 139.964 144.281C143.206 144.509 146.252 142.77 147.702 139.87L157.634 120.007L167.566 139.87C168.929 142.598 171.714 144.301 174.733 144.301Z" fill="black"/>
<path d="M268.796 144.301C273.224 144.301 276.813 140.712 276.813 136.284V84.977C276.813 81.527 274.606 78.463 271.332 77.372C268.055 76.282 264.453 77.406 262.383 80.167L243.143 105.82L223.903 80.167C221.834 77.406 218.231 76.283 214.954 77.372C211.68 78.463 209.473 81.527 209.473 84.977V136.284C209.473 140.711 213.061 144.301 217.49 144.301C221.918 144.301 225.507 140.712 225.507 136.284V109.027L236.73 123.992C239.883 128.198 246.402 128.198 249.557 123.992L260.78 109.027V136.284C260.779 140.711 264.367 144.301 268.796 144.301Z" fill="black"/>
<path d="M302.052 138.819L311.549 110.329L321.046 138.819C322.485 143.134 327.379 145.401 331.609 143.734C335.515 142.195 337.582 137.725 336.257 133.748L319.155 82.441C318.064 79.167 315 76.96 311.55 76.96C308.1 76.96 305.035 79.168 303.945 82.441L286.843 133.748C285.443 137.949 287.712 142.488 291.913 143.889C296.11 145.288 300.652 143.019 302.052 138.819Z" fill="black"/>
<path d="M191.834 383.733H215.267L298.875 433.897C304.13 437.049 311.016 433.125 311.016 427.023V256C311.016 249.891 304.125 245.976 298.875 249.126L215.267 299.29H191.834C177.983 299.29 166.715 310.558 166.715 324.409V358.614C166.715 372.465 177.984 383.733 191.834 383.733ZM294.983 412.863L225.505 371.176V311.845L294.983 270.158V412.863ZM182.749 324.409C182.749 319.399 186.825 315.323 191.835 315.323H209.472V367.699H191.835C186.825 367.699 182.749 363.623 182.749 358.613V324.409Z" fill="black"/>
<path d="M322.985 369.722C326.074 372.81 331.234 372.81 334.323 369.722C342.298 361.747 346.689 351.145 346.689 339.867C346.689 328.589 342.298 317.987 334.323 310.012C331.191 306.881 326.116 306.881 322.985 310.012C319.854 313.143 319.854 318.219 322.985 321.349C327.932 326.296 330.656 332.872 330.656 339.867C330.656 346.862 327.931 353.438 322.985 358.385C319.855 361.515 319.855 366.591 322.985 369.722Z" fill="black"/>
<path d="M352.841 396.256C354.892 396.256 356.944 395.474 358.509 393.908C372.945 379.474 380.895 360.281 380.895 339.867C380.895 319.453 372.945 300.261 358.51 285.826C355.378 282.695 350.303 282.695 347.172 285.826C344.041 288.957 344.041 294.033 347.172 297.163C358.58 308.57 364.862 323.736 364.862 339.867C364.862 355.999 358.58 371.164 347.173 382.571C342.233 387.508 345.829 396.256 352.841 396.256Z" fill="black"/>
<path d="M383.072 426.489C385.123 426.489 387.175 425.707 388.741 424.141C411.252 401.63 423.648 371.701 423.648 339.867C423.648 308.033 411.251 278.103 388.741 255.593C385.609 252.462 380.534 252.462 377.403 255.593C374.272 258.724 374.272 263.8 377.403 266.93C396.886 286.413 407.615 312.315 407.615 339.867C407.615 367.419 396.885 393.321 377.403 412.804C372.465 417.742 376.061 426.489 383.072 426.489Z" fill="black"/>
</svg>
