<svg width="800" height="800" viewBox="0 0 800 800" fill="none" xmlns="http://www.w3.org/2000/svg">
<g clip-path="url(#clip0_1_315)">
<path d="M166.132 12.5266C151.373 12.5266 139.41 24.4891 139.41 39.2485V760.752C139.41 775.511 151.373 787.474 166.132 787.474H754.024C768.784 787.474 780.746 775.511 780.746 760.752V132.777L660.496 12.5266H166.132Z" fill="#ECEDEF"/>
<path d="M687.218 132.777H780.746L660.496 12.5266V106.055C660.496 120.811 672.459 132.777 687.218 132.777Z" fill="#D9DCDF"/>
<path d="M620.412 306.472H139.41V65.9702H620.412C627.79 65.9702 633.773 71.953 633.773 79.3312V293.109C633.774 300.489 627.791 306.472 620.412 306.472Z" fill="#C6CACF"/>
<path d="M607.051 279.75H19.1602L126.049 172.859L19.1602 65.9702H607.051V279.75Z" fill="#78C869"/>
<path d="M660.493 346.555H259.658V413.361H660.493V346.555Z" fill="#FF8C78"/>
<path d="M660.493 493.528H393.27V573.695H660.493V493.528Z" fill="#97CCE8"/>
<path d="M526.88 413.361H393.27V493.528H526.88V413.361Z" fill="#97CCE8"/>
<path d="M780.745 666.389C787.662 666.389 793.271 660.781 793.271 653.862V132.777C793.271 129.495 791.923 126.239 789.602 123.92L669.352 3.67031C667.029 1.34844 663.776 0 660.493 0H166.129C144.488 0 126.88 17.6062 126.88 39.2484V53.4453H19.157C8.23984 53.4453 2.56953 67.0984 10.3008 74.8281L108.334 172.861L10.3023 270.894C2.57265 278.623 8.23984 292.277 19.1586 292.277H126.884V760.753C126.884 782.395 144.49 800.002 166.132 800.002H754.024C775.666 800.002 793.273 782.395 793.273 760.753V707.308C793.273 700.391 787.665 694.781 780.746 694.781C773.829 694.781 768.22 700.389 768.22 707.308V760.753C768.22 768.581 761.851 774.95 754.023 774.95H166.13C158.302 774.95 151.934 768.581 151.934 760.753V292.275H232.935C239.852 292.275 245.462 286.667 245.462 279.748C245.462 272.83 239.854 267.222 232.935 267.222H49.3977L134.904 181.716C139.796 176.823 139.796 168.892 134.904 164.002L49.3977 78.4969H594.523V267.223H286.382C279.465 267.223 273.855 272.831 273.855 279.75C273.855 286.669 279.463 292.277 286.382 292.277H607.051C613.968 292.277 619.577 286.669 619.577 279.75V65.9703C619.577 59.0531 613.969 53.4437 607.051 53.4437H151.935V39.2469C151.935 31.4187 158.304 25.05 166.132 25.05H647.968V106.052C647.968 127.694 665.574 145.3 687.216 145.3H768.218V653.859C768.218 660.781 773.827 666.389 780.745 666.389ZM673.018 106.055V42.7656L711.76 81.5078L750.502 120.25H687.213C679.387 120.25 673.018 113.883 673.018 106.055Z" fill="black"/>
<path d="M673.022 573.695V346.555C673.022 339.637 667.414 334.028 660.495 334.028H419.994C413.077 334.028 407.467 339.636 407.467 346.555C407.467 353.473 413.075 359.081 419.994 359.081H647.969V400.834H272.186V359.081H353.188C360.105 359.081 365.714 353.473 365.714 346.555C365.714 339.636 360.106 334.028 353.188 334.028H259.659C252.742 334.028 247.133 339.636 247.133 346.555V720.667C247.133 727.584 252.741 733.194 259.659 733.194H526.883C533.8 733.194 539.409 727.586 539.409 720.667V586.22H660.495C667.413 586.222 673.022 580.612 673.022 573.695ZM647.969 481.002H539.409V425.887H647.969V481.002ZM272.186 586.222H380.745V641.336H272.186V586.222ZM272.186 561.169V506.055H380.745V561.169H272.186ZM405.798 506.055H514.358V561.169H405.798V506.055ZM405.798 481.002V425.887H514.358V481.002H405.798ZM380.745 425.887V481.002H272.186V425.887H380.745ZM272.186 666.389H380.745V708.142H272.186V666.389ZM405.798 666.389H514.358V708.142H405.798V666.389ZM514.358 641.336H405.798V586.222H514.358V641.336ZM539.409 506.055H647.969V561.169H539.409V506.055Z" fill="black"/>
<path d="M655.286 604.269C650.031 599.766 642.125 600.374 637.623 605.627L607.05 641.295L576.477 605.627C571.973 600.374 564.066 599.764 558.814 604.269C553.561 608.772 552.953 616.678 557.456 621.931L590.552 660.544L557.456 699.156C553.369 703.925 553.503 711.227 557.784 715.828C562.809 721.233 571.677 721.059 576.478 715.459L607.052 679.791L637.625 715.459C642.425 721.059 651.292 721.233 656.319 715.828C660.6 711.225 660.733 703.924 656.647 699.156L623.548 660.544L656.644 621.931C661.147 616.678 660.539 608.77 655.286 604.269Z" fill="black"/>
<path d="M453.716 200.417C446.799 200.417 441.189 206.025 441.189 212.944C441.189 219.861 446.797 225.47 453.716 225.47H493.799C500.716 225.47 506.325 219.863 506.325 212.944V172.859C506.325 165.942 500.718 160.333 493.799 160.333H466.241V145.302H493.799C500.716 145.302 506.325 139.694 506.325 132.775C506.325 125.858 500.718 120.249 493.799 120.249H453.716C446.799 120.249 441.189 125.856 441.189 132.775V172.858C441.189 179.775 446.797 185.384 453.716 185.384H481.274V200.416L453.716 200.417Z" fill="black"/>
<path d="M366.55 120.25C359.633 120.25 354.023 125.858 354.023 132.777V212.944C354.023 219.861 359.631 225.47 366.55 225.47H406.633C413.55 225.47 419.159 219.862 419.159 212.944C419.159 206.027 413.552 200.417 406.633 200.417H379.075V132.777C379.075 125.859 373.467 120.25 366.55 120.25Z" fill="black"/>
<path d="M242.641 222.567C247.885 226.937 255.915 226.205 260.284 220.964L284.063 192.428L307.843 220.964C312.566 226.633 321.432 226.925 326.53 221.592C330.874 217.05 331.11 209.751 327.09 204.926L300.37 172.861L327.09 140.795C331.52 135.481 330.801 127.583 325.487 123.153C320.173 118.725 312.274 119.442 307.845 124.756L284.065 153.292L260.285 124.756C255.855 119.441 247.955 118.722 242.643 123.153C237.329 127.583 236.61 135.481 241.04 140.795L267.76 172.861L241.04 204.926C236.607 210.239 237.324 218.137 242.641 222.567Z" fill="black"/>
</g>
<defs>
<clipPath id="clip0_1_315">
<rect width="800" height="800" fill="white"/>
</clipPath>
</defs>
</svg>
