<svg width="800" height="800" viewBox="0 0 800 800" fill="none" xmlns="http://www.w3.org/2000/svg">
<path d="M166.131 12.5266C151.372 12.5266 139.409 24.4891 139.409 39.2485V760.752C139.409 775.511 151.372 787.473 166.131 787.473H754.023C768.783 787.473 780.745 775.511 780.745 760.752V132.777L660.495 12.5266H166.131Z" fill="#ECEDEF"/>
<path d="M687.216 132.777H780.744L660.494 12.5266V106.055C660.493 120.811 672.458 132.777 687.216 132.777Z" fill="#D9DCDF"/>
<path d="M620.411 306.472H139.409V65.9703H620.411C627.789 65.9703 633.772 71.9531 633.772 79.3313V293.109C633.772 300.489 627.789 306.472 620.411 306.472Z" fill="#C6CACF"/>
<path d="M607.05 279.75H19.1582L126.047 172.859L19.1582 65.9703H607.05V279.75Z" fill="#FFC44F"/>
<path d="M780.746 666.389C787.664 666.389 793.272 660.781 793.272 653.862V132.777C793.272 129.495 791.925 126.239 789.605 123.92L669.355 3.67031C667.03 1.34844 663.777 0 660.494 0H166.132C144.489 0 126.883 17.6062 126.883 39.2484V53.4453H19.1581C8.24094 53.4453 2.57219 67.0984 10.3003 74.8281L108.333 172.861L10.3003 270.892C2.57219 278.622 8.23938 292.275 19.1581 292.275H126.883V760.752C126.883 782.394 144.489 800 166.132 800H754.024C775.666 800 793.272 782.394 793.272 760.752V707.306C793.272 700.389 787.666 694.78 780.746 694.78C773.825 694.78 768.219 700.387 768.219 707.306V760.752C768.219 768.58 761.85 774.948 754.022 774.948H166.132C158.303 774.948 151.935 768.58 151.935 760.752V292.275H232.936C239.855 292.275 245.463 286.667 245.463 279.748C245.463 272.83 239.857 267.222 232.936 267.222H49.3987L134.905 181.716C139.797 176.823 139.797 168.892 134.905 164.002L49.3987 78.4969H594.524V267.223H286.382C279.463 267.223 273.855 272.831 273.855 279.75C273.855 286.669 279.461 292.277 286.382 292.277H607.05C613.969 292.277 619.577 286.669 619.577 279.75V65.9703C619.577 59.0531 613.971 53.4437 607.05 53.4437H151.935V39.2469C151.935 31.4187 158.303 25.05 166.132 25.05H647.969V106.052C647.969 127.694 665.575 145.3 687.217 145.3H768.219V653.859C768.219 660.781 773.825 666.389 780.746 666.389ZM687.217 120.25C679.389 120.25 673.021 113.881 673.021 106.053V42.7656L750.503 120.25H687.217Z" fill="black"/>
<path d="M313.104 391.417H259.658V435.862H313.104V391.417Z" fill="#A1A7AF"/>
<path d="M660.494 391.417H607.049V435.862H660.494V391.417Z" fill="#A1A7AF"/>
<path d="M645.806 446.294H660.47C667.391 446.294 673 441.63 673 435.875V391.419C673 385.666 667.392 381 660.47 381H607.011C600.091 381 594.481 385.665 594.481 391.419V435.875C594.481 441.628 600.089 446.294 607.011 446.294H620.696C615.266 504.652 564.657 553.714 495.612 566.634C489.367 555.469 475.757 547.706 460 547.706C444.235 547.706 430.617 555.477 424.378 566.654C355.251 553.74 304.712 504.793 299.302 446.294H312.989C319.909 446.294 325.519 441.63 325.519 435.875V391.419C325.519 385.666 319.911 381 312.989 381H259.53C252.609 381 247 385.665 247 391.419V435.875C247 441.628 252.608 446.294 259.53 446.294H274.191C278.38 498.663 313.848 544.578 366.478 569.934H312.987C306.067 569.934 300.457 574.599 300.457 580.354C300.457 586.107 306.065 590.773 312.987 590.773H422.801C428.043 603.679 442.731 613 459.998 613C477.265 613 491.953 603.679 497.195 590.773H607.01C613.93 590.773 619.539 586.109 619.539 580.354C619.539 574.6 613.932 569.934 607.01 569.934H553.396C606.045 544.545 641.6 498.559 645.806 446.294ZM619.539 401.839H647.94V425.455H619.541L619.539 401.839ZM272.061 401.839H300.461V425.455H272.061V401.839ZM460 592.161C452.17 592.161 445.799 586.864 445.799 580.352C445.799 573.841 452.17 568.544 460 568.544C467.83 568.544 474.201 573.841 474.201 580.352C474.201 586.864 467.829 592.161 460 592.161Z" fill="black"/>
<path d="M536.178 730.281L505.717 616.597L619.4 647.058L558.57 669.45L536.178 730.281Z" fill="#DB6B5E"/>
<path d="M536.18 742.808C535.991 742.808 535.799 742.805 535.607 742.794C530.153 742.547 525.489 738.795 524.077 733.524L493.618 619.841C492.46 615.519 493.694 610.905 496.858 607.742C500.025 604.577 504.638 603.344 508.958 604.5L622.641 634.963C627.911 636.375 631.663 641.041 631.911 646.494C632.16 651.947 628.849 656.933 623.725 658.817L568.324 679.211L547.93 734.611C546.114 739.55 541.408 742.808 536.18 742.808ZM523.43 634.311L538.058 688.906L546.813 665.122C548.08 661.677 550.796 658.963 554.239 657.695L578.024 648.941L523.43 634.311Z" fill="black"/>
<path d="M433.376 222.727V123.358C433.376 114.784 426.482 107.831 417.972 107.831C409.462 107.831 402.567 114.782 402.567 123.358V222.727C402.567 231.301 409.462 238.254 417.972 238.254C426.482 238.254 433.376 231.301 433.376 222.727Z" fill="black"/>
<path d="M316.866 227.636L335.313 172.458L353.759 227.636C356.554 235.993 366.06 240.383 374.276 237.155C381.863 234.174 385.878 225.517 383.304 217.814L350.086 118.446C347.967 112.105 342.016 107.831 335.315 107.831C328.613 107.831 322.66 112.107 320.543 118.446L287.325 217.814C284.606 225.951 289.013 234.742 297.173 237.455C305.327 240.163 314.145 235.768 316.866 227.636Z" fill="black"/>
</svg>
