<svg width="817" height="800" viewBox="0 0 817 800" fill="none" xmlns="http://www.w3.org/2000/svg">
<path d="M189.402 12.5264C174.642 12.5264 162.68 24.4889 162.68 39.2482V760.751C162.68 775.511 174.642 787.473 189.402 787.473H777.294C792.053 787.473 804.016 775.511 804.016 760.751V132.776L683.766 12.5264H189.402Z" fill="#ECEDEF"/>
<path d="M710.487 132.776H804.015L683.765 12.5264V106.054C683.763 120.811 695.729 132.776 710.487 132.776Z" fill="#D9DCDF"/>
<path d="M643.681 306.472H162.68V65.9702H643.681C651.059 65.9702 657.042 71.953 657.042 79.3312V293.109C657.042 300.489 651.059 306.472 643.681 306.472Z" fill="#C6CACF"/>
<path d="M630.321 279.75H15.4287L122.318 172.859L15.4287 65.9702H630.321V279.75Z" fill="#EED39E"/>
<path d="M804.016 666.389C810.935 666.389 816.543 660.781 816.543 653.862V132.777C816.543 129.495 815.196 126.239 812.875 123.92L692.625 3.67031C690.3 1.34844 687.047 0 683.765 0H189.402C167.76 0 150.154 17.6062 150.154 39.2484V53.4453H12.4286C1.51145 53.4453 -4.1573 67.0984 3.57082 74.8281L101.604 172.861L3.57082 270.892C-4.1573 278.622 1.50988 292.275 12.4286 292.275H150.154V760.752C150.154 782.394 167.76 800 189.402 800H777.294C798.937 800 816.543 782.394 816.543 760.752V707.306C816.543 700.389 810.936 694.78 804.016 694.78C797.096 694.78 791.49 700.387 791.49 707.306V760.752C791.49 768.58 785.121 774.948 777.293 774.948H189.402C181.574 774.948 175.205 768.58 175.205 760.752V292.275H256.207C263.126 292.275 268.733 286.667 268.733 279.748C268.733 272.83 263.127 267.222 256.207 267.222H42.6693L128.176 181.716C133.068 176.823 133.068 168.892 128.176 164.002L42.6693 78.4969H617.794V267.223H309.652C302.733 267.223 297.126 272.831 297.126 279.75C297.126 286.669 302.732 292.277 309.652 292.277H630.321C637.24 292.277 642.847 286.669 642.847 279.75V65.9703C642.847 59.0531 637.241 53.4437 630.321 53.4437H175.205V39.2469C175.205 31.4188 181.574 25.05 189.402 25.05H671.24V106.052C671.24 127.694 688.846 145.3 710.488 145.3H791.49V653.859C791.49 660.781 797.096 666.389 804.016 666.389ZM710.488 120.25C702.66 120.25 696.291 113.881 696.291 106.053V42.7656L773.774 120.25H710.488Z" fill="black"/>
<path d="M339.391 216.655L354.23 172.139L369.069 216.655C371.317 223.397 378.964 226.939 385.573 224.334C391.676 221.93 394.906 214.945 392.836 208.731L366.114 128.564C364.43 123.506 359.561 120 354.231 120C348.9 120 344.033 123.508 342.348 128.564L315.626 208.731C313.469 215.206 317.073 222.419 323.548 224.577C330.022 226.734 337.231 223.128 339.391 216.655Z" fill="black"/>
<path d="M177.271 213.381V132.619C177.271 125.651 171.675 120 164.771 120C157.868 120 152.271 125.649 152.271 132.619V213.381C152.271 220.349 157.866 226 164.771 226C171.675 226 177.271 220.349 177.271 213.381Z" fill="black"/>
<path d="M285.277 221.804C291.641 221.804 296.801 216.644 296.801 210.279V136.525C296.801 131.346 293.345 126.802 288.353 125.419C283.365 124.038 278.059 126.154 275.395 130.596L248.401 175.588L221.406 130.596C218.742 126.155 213.439 124.036 208.448 125.419C203.456 126.802 200 131.346 200 136.525V210.279C200 216.643 205.159 221.804 211.524 221.804C217.888 221.804 223.049 216.644 223.049 210.279V178.131L238.521 203.917C242.917 211.241 253.888 211.242 258.283 203.917L273.755 178.131V210.279C273.752 216.643 278.913 221.804 285.277 221.804Z" fill="black"/>
<path d="M474.859 148.112C481.24 148.112 486.415 142.938 486.415 136.556C486.415 130.175 481.242 125 474.859 125H425.556C419.175 125 414 130.173 414 136.556V210.51C414 216.891 419.173 222.066 425.556 222.066H474.859C481.24 222.066 486.415 216.893 486.415 210.51V173.532C486.415 167.151 481.242 161.976 474.859 161.976H462.534C456.152 161.976 450.978 167.15 450.978 173.532C450.978 179.913 456.151 185.088 462.534 185.088H463.303V198.954H437.112V148.112H474.859Z" fill="black"/>
<path d="M582.393 145.239C589.355 145.239 595 139.589 595 132.619C595 125.651 589.356 120 582.393 120H528.607C521.645 120 516 125.649 516 132.619V213.381C516 220.349 521.644 226 528.607 226H582.393C589.355 226 595 220.351 595 213.381C595 206.412 589.356 200.761 582.393 200.761H541.213V185.619H555.501C562.462 185.619 568.107 179.969 568.107 172.999C568.107 166.031 562.464 160.38 555.501 160.38H541.213V145.237H582.393V145.239Z" fill="black"/>
<path d="M658.442 717.039H289.098C281.814 717.039 275.907 711.132 275.907 703.848V360.885C275.907 353.601 281.814 347.695 289.098 347.695H658.442C665.726 347.695 671.632 353.601 671.632 360.885V703.848C671.632 711.132 665.726 717.039 658.442 717.039Z" fill="#3C9FE8"/>
<path d="M275.906 586.229L368.242 454.321L487.785 638.993L579.297 546.657L671.633 638.993V703.848C671.633 711.132 665.726 717.039 658.442 717.039H289.098C281.814 717.039 275.908 711.132 275.908 703.848L275.906 586.229Z" fill="#C4DF64"/>
<path d="M579.297 546.658L501.947 624.703H657.343L579.297 546.658Z" fill="#ECEDEF"/>
<path d="M368.242 454.321L285.91 571.939H444.38L368.242 454.321Z" fill="#ECEDEF"/>
<path d="M275.906 677.465V703.846C275.906 711.13 281.813 717.037 289.097 717.037H658.441C665.725 717.037 671.631 711.13 671.631 703.846V677.465H275.906Z" fill="#8AC451"/>
<path d="M473.769 493.898C495.624 493.898 513.341 476.181 513.341 454.326C513.341 432.471 495.624 414.754 473.769 414.754C451.914 414.754 434.197 432.471 434.197 454.326C434.197 476.181 451.914 493.898 473.769 493.898Z" fill="#FFC44F"/>
<path d="M289.099 729.404H658.442C672.535 729.404 684 717.94 684 703.847V638.992V360.886C684 346.793 672.535 335.328 658.442 335.328H289.099C275.005 335.328 263.541 346.793 263.541 360.886V586.229V703.847C263.541 717.94 275.005 729.404 289.099 729.404ZM659.266 703.847C659.266 704.302 658.898 704.671 658.442 704.671H289.099C288.643 704.671 288.275 704.302 288.275 703.847V590.126L367.807 476.508L476.559 645.679C480.754 652.206 490.211 653.235 495.706 647.737L579.299 564.144L659.268 644.113L659.266 703.847ZM289.099 360.06H658.442C658.898 360.06 659.266 360.429 659.266 360.884V609.137L588.04 537.911C583.211 533.081 575.381 533.081 570.552 537.911L489.065 619.398L378.644 447.633C373.968 440.361 363.067 440.147 358.111 447.229L288.272 546.998V360.886C288.273 360.431 288.643 360.06 289.099 360.06Z" fill="black"/>
<path d="M473.771 506.26C502.41 506.26 525.71 482.96 525.71 454.322C525.71 425.684 502.409 402.383 473.771 402.383C445.131 402.383 421.832 425.684 421.832 454.322C421.83 482.96 445.131 506.26 473.771 506.26ZM473.771 427.115C488.772 427.115 500.977 439.32 500.977 454.322C500.977 469.323 488.772 481.528 473.771 481.528C458.769 481.528 446.564 469.323 446.564 454.322C446.564 439.32 458.769 427.115 473.771 427.115Z" fill="black"/>
<path d="M341.861 413.924H368.242C375.071 413.924 380.609 408.388 380.609 401.557C380.609 394.728 375.073 389.19 368.242 389.19H341.861C335.032 389.19 329.494 394.727 329.494 401.557C329.494 408.386 335.032 413.924 341.861 413.924Z" fill="black"/>
<path d="M566.107 466.687H592.488C599.317 466.687 604.855 461.151 604.855 454.32C604.855 447.489 599.319 441.953 592.488 441.953H566.107C559.278 441.953 553.74 447.489 553.74 454.32C553.74 461.151 559.277 466.687 566.107 466.687Z" fill="black"/>
<path d="M580.121 493.893C580.121 500.722 585.657 506.26 592.488 506.26H618.869C625.698 506.26 631.236 500.724 631.236 493.893C631.236 487.064 625.7 481.526 618.869 481.526H592.488C585.659 481.526 580.121 487.063 580.121 493.893Z" fill="black"/>
</svg>
