<svg width="800" height="800" viewBox="0 0 800 800" fill="none" xmlns="http://www.w3.org/2000/svg">
<path d="M166.131 12.5266C151.372 12.5266 139.409 24.4891 139.409 39.2485V760.752C139.409 775.511 151.372 787.473 166.131 787.473H754.023C768.783 787.473 780.745 775.511 780.745 760.752V132.777L660.495 12.5266H166.131Z" fill="#ECEDEF"/>
<path d="M687.216 132.777H780.744L660.494 12.5266V106.055C660.492 120.811 672.458 132.777 687.216 132.777Z" fill="#D9DCDF"/>
<path d="M620.411 306.472H139.409V65.9703H620.411C627.789 65.9703 633.772 71.9531 633.772 79.3313V293.109C633.772 300.489 627.789 306.472 620.411 306.472Z" fill="#C6CACF"/>
<path d="M607.05 279.75H19.1577L126.047 172.859L19.1577 65.9703H607.05V279.75Z" fill="#FF62DC"/>
<path d="M433.354 346.555C337.425 346.555 259.659 424.32 259.659 520.25C259.659 616.18 337.425 693.945 433.354 693.945C529.284 693.945 607.05 616.18 607.05 520.25C607.05 424.32 529.283 346.555 433.354 346.555ZM433.354 560.334C411.217 560.334 393.272 542.389 393.272 520.252C393.272 498.114 411.217 480.169 433.354 480.169C455.492 480.169 473.437 498.114 473.437 520.252C473.437 542.389 455.492 560.334 433.354 560.334Z" fill="#C6CACF"/>
<path d="M405.011 548.595L310.534 643.073C341.967 674.506 385.39 693.948 433.354 693.948V560.337C422.284 560.334 412.264 555.848 405.011 548.595Z" fill="#D9DCDF"/>
<path d="M461.697 491.906L556.173 397.428C524.74 365.995 481.317 346.553 433.353 346.553V480.164C444.422 480.167 454.444 484.653 461.697 491.906Z" fill="#D9DCDF"/>
<path d="M433.355 413.361C374.322 413.361 326.466 461.217 326.466 520.25C326.466 579.283 374.322 627.139 433.355 627.139C492.388 627.139 540.244 579.283 540.244 520.25C540.244 461.217 492.388 413.361 433.355 413.361ZM433.355 560.334C411.217 560.334 393.272 542.389 393.272 520.252C393.272 498.114 411.217 480.169 433.355 480.169C455.492 480.169 473.438 498.114 473.438 520.252C473.438 542.389 455.492 560.334 433.355 560.334Z" fill="#A1A7AF"/>
<path d="M460.075 720.667C489.592 720.667 513.521 702.721 513.521 680.584C513.521 658.447 489.592 640.501 460.075 640.501C430.558 640.501 406.63 658.447 406.63 680.584C406.63 702.721 430.558 720.667 460.075 720.667Z" fill="#FF8C78"/>
<path d="M486.799 693.945C457.281 693.945 433.353 676 433.353 653.862C433.353 650.941 433.781 648.095 434.572 645.352C417.927 652.142 406.63 665.375 406.63 680.584C406.63 702.722 430.558 720.667 460.075 720.667C485.697 720.667 507.097 707.142 512.3 689.095C504.724 692.189 496.035 693.945 486.799 693.945Z" fill="#DB6B5E"/>
<path d="M607.048 640.5C636.565 640.5 660.494 622.554 660.494 600.417C660.494 578.28 636.565 560.334 607.048 560.334C577.531 560.334 553.603 578.28 553.603 600.417C553.603 622.554 577.531 640.5 607.048 640.5Z" fill="#FF8C78"/>
<path d="M633.772 613.778C604.255 613.778 580.326 595.833 580.326 573.695C580.326 570.773 580.755 567.928 581.545 565.184C564.9 571.975 553.603 585.208 553.603 600.417C553.603 622.555 577.531 640.5 607.048 640.5C632.67 640.5 654.07 626.975 659.273 608.928C651.695 612.022 643.008 613.778 633.772 613.778Z" fill="#DB6B5E"/>
<path d="M399.369 703.375C399.825 703.458 400.28 703.511 400.731 703.544C411.442 721.08 434.017 733.194 460.077 733.194C495.953 733.194 525.213 710.233 526.009 681.772C543.13 671.934 558.488 659.523 571.73 644.817C581.95 650.006 594.062 653.027 607.05 653.027C643.425 653.027 673.02 629.425 673.02 600.417V386.637C673.02 376.952 661.966 370.856 653.77 376.069L588.608 417.534C555.228 367.251 498.103 334.028 433.355 334.028C412.442 334.028 391.909 337.472 372.322 344.262C365.786 346.528 362.325 353.664 364.591 360.2C366.856 366.736 373.991 370.198 380.528 367.931C397.47 362.058 415.242 359.08 433.353 359.08C489.231 359.08 538.552 387.669 567.477 430.983L506.797 469.597C503.184 471.897 500.995 475.881 500.995 480.166V639.362C489.741 632.242 475.525 627.973 460.077 627.973C425.37 627.973 396.859 649.459 394.311 676.626C322.991 658.936 272.184 594.697 272.184 520.248C272.184 471.714 293.752 426.23 331.355 395.456C336.708 391.073 337.497 383.183 333.116 377.83C328.734 372.475 320.842 371.687 315.489 376.069C272.048 411.619 247.133 464.17 247.133 520.248C247.133 610.086 311.158 687.102 399.369 703.375ZM607.05 627.975C584.87 627.975 566.131 615.355 566.131 600.417C566.131 585.48 584.87 572.859 607.05 572.859C629.23 572.859 647.969 585.48 647.969 600.417C647.969 615.355 629.23 627.975 607.05 627.975ZM647.969 409.458V559.197C639.289 553.706 628.85 549.912 617.438 548.466C618.85 539.161 619.577 529.712 619.577 520.25C619.577 491.262 612.916 463.803 601.05 439.314L647.969 409.458ZM579.744 452.873C589.223 473.386 594.523 496.211 594.523 520.25C594.523 529.992 593.644 539.714 591.92 549.22C562.814 554.691 541.08 575.561 541.08 600.417C541.08 611.086 545.094 621.017 551.964 629.317C544.127 637.842 535.456 645.452 526.048 652.075V487.044L579.744 452.873ZM460.077 653.027C482.256 653.027 500.995 665.647 500.995 680.584C500.995 695.522 482.256 708.142 460.077 708.142C437.897 708.142 419.158 695.522 419.158 680.584C419.158 665.647 437.897 653.027 460.077 653.027Z" fill="black"/>
<path d="M485.964 520.25C485.964 491.241 462.362 467.641 433.354 467.641C404.345 467.641 380.745 491.242 380.745 520.25C380.745 549.259 404.347 572.859 433.354 572.859C462.362 572.859 485.964 549.259 485.964 520.25ZM405.797 520.25C405.797 505.055 418.159 492.692 433.354 492.692C448.55 492.692 460.912 505.055 460.912 520.25C460.912 535.445 448.55 547.808 433.354 547.808C418.159 547.808 405.797 535.445 405.797 520.25Z" fill="black"/>
<path d="M780.745 666.389C787.664 666.389 793.272 660.781 793.272 653.862V132.777C793.272 129.495 791.925 126.239 789.604 123.92L669.355 3.67031C667.031 1.34844 663.776 0 660.494 0H166.131C144.489 0 126.883 17.6062 126.883 39.2484V53.4453H19.1576C8.24045 53.4453 2.5717 67.0984 10.2998 74.8281L108.333 172.861L10.2998 270.892C2.5717 278.622 8.23889 292.275 19.1576 292.275H126.883V760.752C126.883 782.394 144.489 800 166.131 800H754.023C775.665 800 793.272 782.394 793.272 760.752V707.306C793.272 700.389 787.665 694.78 780.745 694.78C773.825 694.78 768.219 700.387 768.219 707.306V760.752C768.219 768.58 761.85 774.948 754.022 774.948H166.131C158.303 774.948 151.934 768.58 151.934 760.752V292.275H232.936C239.855 292.275 245.462 286.667 245.462 279.748C245.462 272.83 239.856 267.222 232.936 267.222H49.3983L134.905 181.716C139.797 176.823 139.797 168.892 134.905 164.002L49.3983 78.4969H594.523V267.223H286.381C279.462 267.223 273.855 272.831 273.855 279.75C273.855 286.669 279.461 292.277 286.381 292.277H607.05C613.969 292.277 619.576 286.669 619.576 279.75V65.9703C619.576 59.0531 613.97 53.4437 607.05 53.4437H151.934V39.2469C151.934 31.4187 158.303 25.05 166.131 25.05H647.969V106.052C647.969 127.694 665.575 145.3 687.217 145.3H768.219V653.859C768.219 660.781 773.825 666.389 780.745 666.389ZM687.217 120.25C679.389 120.25 673.02 113.881 673.02 106.053V42.7656L750.503 120.25H687.217Z" fill="black"/>
<path d="M280.972 225.22C287.889 225.22 293.498 219.612 293.498 212.694V132.527C293.498 125.609 287.891 120 280.972 120H227.527C220.609 120 215 125.608 215 132.527V212.694C215 219.611 220.608 225.22 227.527 225.22H280.972ZM240.053 145.053H268.445V200.167H240.053V145.053Z" fill="black"/>
<path d="M475.812 145.053C482.818 145.053 488.498 139.445 488.498 132.527C488.498 125.609 482.819 120 475.812 120H421.686C414.681 120 409 125.608 409 132.527V212.694C409 219.611 414.679 225.22 421.686 225.22H475.812C482.818 225.22 488.498 219.612 488.498 212.694V172.609C488.498 165.692 482.819 160.083 475.812 160.083H462.281C455.276 160.083 449.595 165.691 449.595 172.609C449.595 179.527 455.274 185.136 462.281 185.136H463.126V200.167H434.372V145.053H475.812Z" fill="black"/>
<path d="M377.812 145.053C384.818 145.053 390.498 139.445 390.498 132.527C390.498 125.609 384.819 120 377.812 120H323.686C316.681 120 311 125.608 311 132.527V212.694C311 219.611 316.679 225.22 323.686 225.22H377.812C384.818 225.22 390.498 219.612 390.498 212.694V172.609C390.498 165.692 384.819 160.083 377.812 160.083H364.281C357.276 160.083 351.595 165.691 351.595 172.609C351.595 179.527 357.274 185.136 364.281 185.136H365.126V200.167H336.372V145.053H377.812Z" fill="black"/>
</svg>
