<svg width="736" height="736" viewBox="0 0 736 736" fill="none" xmlns="http://www.w3.org/2000/svg">
<g clip-path="url(#clip0_1_50)">
<path d="M632.24 122.154H718.286L607.656 11.5244V97.5703C607.656 111.146 618.661 122.154 632.24 122.154Z" fill="#D9DCDF"/>
<path d="M152.841 11.5244C139.262 11.5244 128.257 22.5299 128.257 36.1085V699.891C128.257 713.47 139.262 724.476 152.841 724.476H693.702C707.28 724.476 718.286 713.47 718.286 699.891V122.154L607.656 11.5244H152.841Z" fill="#ECEDEF"/>
<path d="M570.778 281.954H128.257V60.6926H570.778C577.566 60.6926 583.07 66.1968 583.07 72.9847V269.661C583.072 276.45 577.567 281.954 570.778 281.954Z" fill="#C6CACF"/>
<path d="M558.486 257.37H17.6267L115.965 159.031L17.6267 60.6926H558.486V257.37Z" fill="#ABB4C0"/>
<path d="M607.653 380.292H238.885V613.846H607.653V380.292Z" fill="#FFC44F"/>
<path d="M238.887 581.137V613.846H607.656V581.483L420.792 421.512L238.887 581.137Z" fill="#F79F4D"/>
<path d="M238.887 613.846H607.656L420.992 454.046L238.887 613.846Z" fill="#FFC44F"/>
<path d="M406.496 536.728C415.941 545.544 430.6 545.544 440.045 536.728L607.654 380.292H238.887L406.496 536.728Z" fill="#FFD791"/>
<path d="M718.286 613.078C724.649 613.078 729.81 607.919 729.81 601.553V122.154C729.81 119.136 728.57 116.14 726.435 114.007L615.805 3.37669C613.672 1.24344 610.672 0 607.654 0H152.839C132.93 0 116.731 16.1977 116.731 36.1086V49.1697H17.6251C7.58133 49.1697 2.36465 61.7306 9.4774 68.8419L99.6676 159.032L9.47884 249.222C2.36752 256.334 7.58134 268.894 17.6266 268.894H116.734V699.893C116.734 719.804 132.931 736.001 152.842 736.001H693.703C713.614 736.001 729.812 719.804 729.812 699.893V650.723C729.812 644.359 724.652 639.199 718.287 639.199C711.923 639.199 706.763 644.358 706.763 650.723V699.893C706.763 707.095 700.903 712.954 693.702 712.954H152.841C145.639 712.954 139.78 707.095 139.78 699.893V268.893H214.301C220.665 268.893 225.825 263.734 225.825 257.369C225.825 251.003 220.666 245.844 214.301 245.844H45.4465L124.112 167.178C128.613 162.678 128.613 155.381 124.112 150.881L45.4465 72.2171H546.962V245.846H263.472C257.108 245.846 251.948 251.005 251.948 257.37C251.948 263.735 257.107 268.894 263.472 268.894H558.487C564.851 268.894 570.012 263.735 570.012 257.37V60.6927C570.012 54.3289 564.853 49.1682 558.487 49.1682H139.781V36.1071C139.781 28.9052 145.64 23.046 152.842 23.046H596.131V97.5674C596.131 117.478 612.329 133.676 632.24 133.676H706.761V601.551C706.761 607.919 711.922 613.078 718.286 613.078ZM619.177 97.5703V39.3444L690.463 110.63H632.237C625.036 110.63 619.177 104.772 619.177 97.5703Z" fill="black"/>
<path d="M275.764 133.679C282.128 133.679 287.289 128.52 287.289 122.154C287.289 115.791 282.129 110.63 275.764 110.63H226.595C220.231 110.63 215.07 115.789 215.07 122.154V195.908C215.07 202.272 220.229 207.433 226.595 207.433H275.764C282.128 207.433 287.289 202.274 287.289 195.908C287.289 189.544 282.129 184.384 275.764 184.384H238.119V170.555H251.18C257.544 170.555 262.705 165.396 262.705 159.031C262.705 152.667 257.545 147.506 251.18 147.506H238.119V133.677H275.764V133.679Z" fill="black"/>
<path d="M386.394 207.433C392.758 207.433 397.919 202.273 397.919 195.908V122.154C397.919 116.975 394.463 112.431 389.47 111.048C384.482 109.667 379.177 111.783 376.513 116.225L349.518 161.217L322.523 116.225C319.86 111.784 314.557 109.665 309.566 111.048C304.573 112.431 301.117 116.975 301.117 122.154V195.908C301.117 202.272 306.277 207.433 312.642 207.433C319.006 207.433 324.166 202.273 324.166 195.908V163.76L339.638 189.546C344.034 196.87 355.005 196.871 359.401 189.546L374.873 163.76V195.908C374.87 202.272 380.03 207.433 386.394 207.433Z" fill="black"/>
<path d="M423.272 110.63C416.908 110.63 411.748 115.789 411.748 122.154V195.908C411.748 202.272 416.907 207.433 423.272 207.433H460.148C466.512 207.433 471.673 202.273 471.673 195.908C471.673 189.544 466.513 184.384 460.148 184.384H434.795V122.154C434.795 115.791 429.636 110.63 423.272 110.63Z" fill="black"/>
<path d="M619.18 380.292C619.18 374.017 613.926 368.768 607.656 368.768H349.518C343.154 368.768 337.994 373.927 337.994 380.292C337.994 386.656 343.153 391.816 349.518 391.816H578.42L432.183 528.304C427.186 532.967 419.359 532.967 414.361 528.304L268.123 391.816H312.639C319.003 391.816 324.164 386.657 324.164 380.292C324.164 373.928 319.004 368.768 312.639 368.768H238.885C232.618 368.768 227.361 374.019 227.361 380.292V613.846C227.361 620.107 232.618 625.37 238.885 625.37H607.653C613.918 625.37 619.177 620.104 619.177 613.846V380.292H619.18ZM596.131 588.81L494.424 501.739L596.131 406.812V588.81ZM350.69 500.405L250.411 588.4V406.811L350.69 500.405ZM269.493 602.321L367.625 516.209L398.635 545.152C405.543 551.6 414.407 554.825 423.273 554.825C432.137 554.825 441.005 551.599 447.911 545.153L477.47 517.565L576.474 602.321H269.493Z" fill="black"/>
</g>
<defs>
<clipPath id="clip0_1_50">
<rect width="736" height="736" fill="white"/>
</clipPath>
</defs>
</svg>
