<svg width="645" height="645" viewBox="0 0 645 645" fill="none" xmlns="http://www.w3.org/2000/svg">
<g clip-path="url(#clip0_1_227)">
<path d="M133.943 10.0996C122.044 10.0996 112.399 19.7444 112.399 31.6441V613.356C112.399 625.256 122.044 634.901 133.943 634.901H607.932C619.831 634.901 629.476 625.256 629.476 613.356V107.051L532.524 10.0996H133.943Z" fill="#ECEDEF"/>
<path d="M554.069 107.051H629.476L532.524 10.0996V85.5067C532.523 97.4039 542.169 107.051 554.069 107.051Z" fill="#D9DCDF"/>
<path d="M500.206 247.093H112.399V53.1885H500.206C506.155 53.1885 510.979 58.0121 510.979 63.9607V236.319C510.979 242.269 506.155 247.093 500.206 247.093Z" fill="#C6CACF"/>
<path d="M489.434 225.548H15.4458L101.625 139.368L15.4458 53.1885H489.434V225.548Z" fill="#FF0000"/>
<path d="M521.751 581.039H220.123C214.174 581.039 209.351 576.215 209.351 570.267V290.183C209.351 284.235 214.174 279.411 220.123 279.411H521.751C527.7 279.411 532.523 284.235 532.523 290.183V570.267C532.523 576.215 527.701 581.039 521.751 581.039Z" fill="#D9DCDF"/>
<path d="M230.895 559.493V279.41H220.123C214.174 279.41 209.351 284.233 209.351 290.182V570.266C209.351 576.214 214.174 581.038 220.123 581.038H521.751C527.7 581.038 532.523 576.214 532.523 570.266V559.493H230.895Z" fill="#C6CACF"/>
<path d="M489.431 408.679H381.708V537.949H489.431V408.679Z" fill="#DB6B5E"/>
<path d="M467.887 430.224H403.252V516.403H467.887V430.224Z" fill="#FF8C78"/>
<path d="M629.476 537.276C635.054 537.276 639.575 532.755 639.575 527.177V107.051C639.575 104.406 638.489 101.782 636.619 99.9107L539.667 2.95919C537.794 1.08718 535.17 0 532.523 0H133.943C116.494 0 102.299 14.195 102.299 31.6441V43.0903H15.4458C6.6438 43.0903 2.07211 54.0981 8.30543 60.3302L87.3431 139.369L8.30543 218.408C2.07337 224.64 6.64254 235.648 15.4458 235.648H102.299V613.357C102.299 630.806 116.494 645.001 133.943 645.001H607.931C625.38 645.001 639.575 630.806 639.575 613.357V570.267C639.575 564.69 635.055 560.167 629.476 560.167C623.897 560.167 619.376 564.689 619.376 570.267V613.357C619.376 619.669 614.241 624.803 607.93 624.803H133.943C127.632 624.803 122.497 619.669 122.497 613.357V235.647H187.804C193.381 235.647 197.904 231.125 197.904 225.547C197.904 219.969 193.383 215.448 187.804 215.448H39.8273L108.767 146.508C112.711 142.564 112.711 136.169 108.767 132.226L39.8273 63.2881H479.334V215.449H230.895C225.318 215.449 220.795 219.97 220.795 225.548C220.795 231.127 225.316 235.648 230.895 235.648H489.434C495.012 235.648 499.533 231.127 499.533 225.548V53.1886C499.533 47.6116 495.013 43.089 489.434 43.089H122.497V31.6428C122.497 25.3314 127.632 20.1966 133.943 20.1966H522.425V85.5041C522.425 102.953 536.62 117.148 554.069 117.148H619.376V527.174C619.376 532.755 623.896 537.276 629.476 537.276ZM554.069 96.9516C547.757 96.9516 542.622 91.8168 542.622 85.5053V34.4798L605.093 96.9516H554.069Z" fill="black"/>
<path d="M204.879 171.686V149.445C205.102 149.46 205.326 149.468 205.551 149.468H237.868C243.445 149.468 247.968 144.946 247.968 139.368V107.051C247.968 101.474 243.446 96.9517 237.868 96.9517H194.778C189.201 96.9517 184.678 101.473 184.678 107.051V171.686C184.678 177.263 189.2 181.786 194.778 181.786C200.356 181.786 204.879 177.263 204.879 171.686ZM204.879 117.151H227.77V129.27H205.551C205.325 129.27 205.102 129.276 204.879 129.292V117.151Z" fill="white"/>
<path d="M204.879 171.686V149.445C205.102 149.46 205.326 149.468 205.551 149.468H237.868C243.445 149.468 247.968 144.946 247.968 139.368V107.051C247.968 101.474 243.446 96.9517 237.868 96.9517H194.778C189.201 96.9517 184.678 101.473 184.678 107.051V171.686C184.678 177.263 189.2 181.786 194.778 181.786C200.356 181.786 204.879 177.263 204.879 171.686ZM204.879 117.151H227.77V129.27H205.551C205.325 129.27 205.102 129.276 204.879 129.292V117.151Z" stroke="black"/>
<path d="M325.948 181.786C331.527 181.786 336.048 177.264 336.048 171.686V128.596C336.048 111.147 321.853 96.9517 304.404 96.9517H282.859C277.282 96.9517 272.76 101.473 272.76 107.051V171.686C272.76 177.263 277.281 181.786 282.859 181.786H325.948ZM292.958 117.151H304.404C310.715 117.151 315.85 122.286 315.85 128.597V161.588H292.959L292.958 117.151Z" fill="white"/>
<path d="M325.948 181.786C331.527 181.786 336.048 177.264 336.048 171.686V128.596C336.048 111.147 321.853 96.9517 304.404 96.9517H282.859C277.282 96.9517 272.76 101.473 272.76 107.051V171.686C272.76 177.263 277.281 181.786 282.859 181.786H325.948ZM292.958 117.151H304.404C310.715 117.151 315.85 122.286 315.85 128.597V161.588H292.959L292.958 117.151Z" stroke="black"/>
<path d="M414.027 117.151C419.605 117.151 424.126 112.629 424.126 107.051C424.126 101.474 419.606 96.9517 414.027 96.9517H370.936C365.358 96.9517 360.837 101.473 360.837 107.051V171.686C360.837 177.263 365.357 181.786 370.936 181.786C376.516 181.786 381.036 177.264 381.036 171.686V149.468H403.254C408.833 149.468 413.354 144.946 413.354 139.368C413.354 133.791 408.834 129.268 403.254 129.268H381.036V117.149H414.027V117.151Z" fill="white"/>
<path d="M414.027 117.151C419.605 117.151 424.126 112.629 424.126 107.051C424.126 101.474 419.606 96.9517 414.027 96.9517H370.936C365.358 96.9517 360.837 101.473 360.837 107.051V171.686C360.837 177.263 365.357 181.786 370.936 181.786C376.516 181.786 381.036 177.264 381.036 171.686V149.468H403.254C408.833 149.468 413.354 144.946 413.354 139.368C413.354 133.791 408.834 129.268 403.254 129.268H381.036V117.149H414.027V117.151Z" stroke="black"/>
<path d="M199.251 290.183V570.267C199.251 581.776 208.614 591.139 220.123 591.139H521.751C533.26 591.139 542.623 581.776 542.623 570.267V290.183C542.623 278.674 533.26 269.312 521.751 269.312H220.123C208.614 269.312 199.251 278.674 199.251 290.183ZM219.45 290.183C219.45 289.812 219.751 289.511 220.123 289.511H521.751C522.121 289.511 522.424 289.812 522.424 290.183V570.267C522.424 570.639 522.12 570.94 521.751 570.94H220.123C219.751 570.94 219.45 570.639 219.45 570.267V290.183Z" fill="black"/>
<path d="M381.709 548.049H489.433C495.011 548.049 499.532 543.527 499.532 537.949V408.679C499.532 403.102 495.012 398.58 489.433 398.58H381.709C376.131 398.58 371.609 403.101 371.609 408.679V537.949C371.611 543.526 376.131 548.049 381.709 548.049ZM391.808 418.779H479.334V527.849H391.808V418.779Z" fill="black"/>
<path d="M381.709 332.599H500.206C505.784 332.599 510.306 328.078 510.306 322.5C510.306 316.923 505.786 312.4 500.206 312.4H381.709C376.131 312.4 371.609 316.922 371.609 322.5C371.611 328.077 376.131 332.599 381.709 332.599Z" fill="black"/>
<path d="M381.709 375.689H500.206C505.784 375.689 510.306 371.167 510.306 365.589C510.306 360.012 505.786 355.49 500.206 355.49H381.709C376.131 355.49 371.609 360.011 371.609 365.589C371.611 371.167 376.131 375.689 381.709 375.689Z" fill="black"/>
<path d="M241.667 332.599H349.392C354.97 332.599 359.492 328.078 359.492 322.5C359.492 316.923 354.972 312.4 349.392 312.4H241.668C236.091 312.4 231.569 316.922 231.569 322.5C231.569 328.077 236.09 332.599 241.667 332.599Z" fill="black"/>
<path d="M241.667 375.689H349.392C354.97 375.689 359.492 371.167 359.492 365.589C359.492 360.012 354.972 355.49 349.392 355.49H241.668C236.091 355.49 231.569 360.011 231.569 365.589C231.569 371.167 236.09 375.689 241.667 375.689Z" fill="black"/>
<path d="M241.667 418.779H349.392C354.97 418.779 359.492 414.258 359.492 408.679C359.492 403.102 354.972 398.58 349.392 398.58H241.668C236.091 398.58 231.569 403.101 231.569 408.679C231.569 414.258 236.09 418.779 241.667 418.779Z" fill="black"/>
<path d="M241.667 461.868H349.392C354.97 461.868 359.492 457.346 359.492 451.768C359.492 446.191 354.972 441.669 349.392 441.669H241.668C236.091 441.669 231.569 446.19 231.569 451.768C231.569 457.346 236.09 461.868 241.667 461.868Z" fill="black"/>
<path d="M241.667 504.958H349.392C354.97 504.958 359.492 500.437 359.492 494.859C359.492 489.282 354.972 484.759 349.392 484.759H241.668C236.091 484.759 231.569 489.28 231.569 494.859C231.569 500.437 236.09 504.958 241.667 504.958Z" fill="black"/>
<path d="M241.667 548.048H349.392C354.97 548.048 359.492 543.527 359.492 537.949C359.492 532.372 354.972 527.849 349.392 527.849H241.668C236.091 527.849 231.569 532.371 231.569 537.949C231.569 543.526 236.09 548.048 241.667 548.048Z" fill="black"/>
</g>
<defs>
<clipPath id="clip0_1_227">
<rect width="645" height="645" fill="white"/>
</clipPath>
</defs>
</svg>
