<svg width="800" height="800" viewBox="0 0 800 800" fill="none" xmlns="http://www.w3.org/2000/svg">
<path d="M166.131 12.5266C151.372 12.5266 139.409 24.4891 139.409 39.2484V760.752C139.409 775.511 151.372 787.473 166.131 787.473H754.023C768.783 787.473 780.745 775.511 780.745 760.752V132.777L660.495 12.5266H166.131Z" fill="#ECEDEF"/>
<path d="M687.216 132.777H780.744L660.494 12.5266V106.055C660.492 120.811 672.458 132.777 687.216 132.777Z" fill="#D9DCDF"/>
<path d="M620.411 306.472H139.409V65.9703H620.411C627.789 65.9703 633.772 71.9531 633.772 79.3312V293.109C633.772 300.489 627.789 306.472 620.411 306.472Z" fill="#C6CACF"/>
<path d="M607.05 279.75H19.1577L126.047 172.859L19.1577 65.9703H607.05V279.75Z" fill="#529E44"/>
<path d="M613.892 279.78H26L132.889 172.889L26 66H613.892V279.78Z" fill="#0177EE"/>
<path d="M780.745 666.389C787.664 666.389 793.272 660.781 793.272 653.862V132.777C793.272 129.495 791.925 126.241 789.604 123.92L669.355 3.67031C667.031 1.34844 663.776 0 660.494 0H166.131C144.489 0 126.883 17.6062 126.883 39.2484V53.4453H19.1576C8.24045 53.4453 2.5717 67.0984 10.2998 74.8281L108.333 172.861L10.2998 270.892C2.5717 278.622 8.23889 292.275 19.1576 292.275H126.883V760.752C126.883 782.394 144.489 800 166.131 800H754.023C775.665 800 793.272 782.394 793.272 760.752V707.306C793.272 700.389 787.665 694.78 780.745 694.78C773.825 694.78 768.219 700.387 768.219 707.306V760.752C768.219 768.58 761.85 774.948 754.022 774.948H166.131C158.303 774.948 151.934 768.58 151.934 760.752V292.275H232.936C239.855 292.275 245.462 286.667 245.462 279.748C245.462 272.83 239.856 267.222 232.936 267.222H49.3983L134.905 181.716C139.797 176.823 139.797 168.892 134.905 164.002L49.3983 78.4969H594.523V267.223H286.381C279.462 267.223 273.855 272.831 273.855 279.75C273.855 286.669 279.461 292.277 286.381 292.277H607.05C613.969 292.277 619.576 286.669 619.576 279.75V65.9703C619.576 59.0531 613.97 53.4437 607.05 53.4437H151.934V39.2469C151.934 31.4187 158.303 25.05 166.131 25.05H647.969V106.052C647.969 127.694 665.575 145.3 687.217 145.3H768.219V653.859C768.219 660.781 773.825 666.389 780.745 666.389ZM687.217 120.25C679.389 120.25 673.02 113.881 673.02 106.053V42.7656L750.503 120.25H687.217Z" fill="black"/>
<path d="M419.994 200.417C413.075 200.417 407.467 206.025 407.467 212.944C407.467 219.861 413.074 225.47 419.994 225.47H460.077C466.995 225.47 472.603 219.862 472.603 212.944V172.859C472.603 165.942 466.997 160.333 460.077 160.333H432.519V145.302H460.077C466.995 145.302 472.603 139.694 472.603 132.775C472.603 125.858 466.997 120.248 460.077 120.248H419.994C413.075 120.248 407.467 125.856 407.467 132.775V172.858C407.467 179.775 413.074 185.384 419.994 185.384H447.552V200.416L419.994 200.417Z" fill="white"/>
<path d="M313.103 706.472H353.186C360.105 706.472 365.713 700.864 365.713 693.945C365.713 687.028 360.106 681.419 353.186 681.419H313.103C305.275 681.419 298.906 675.05 298.906 667.222V573.694C298.906 570.372 297.588 567.186 295.239 564.837L277.372 546.972L295.238 529.106C297.586 526.758 298.905 523.572 298.905 520.25V426.722C298.905 418.894 305.274 412.525 313.102 412.525H353.184C360.103 412.525 365.711 406.917 365.711 399.998C365.711 393.081 360.105 387.472 353.184 387.472H313.102C291.459 387.472 273.853 405.078 273.853 426.72V515.061L250.799 538.114C245.906 543.006 245.906 550.938 250.799 555.828L273.853 578.881V667.222C273.855 688.866 291.463 706.472 313.103 706.472Z" fill="black"/>
<path d="M566.966 706.472H607.048C628.691 706.472 646.297 688.866 646.297 667.223V578.883L669.351 555.83C674.244 550.937 674.244 543.006 669.351 538.116L646.297 515.063V426.722C646.297 405.08 628.691 387.473 607.048 387.473H566.966C560.047 387.473 554.439 393.081 554.439 400C554.439 406.917 560.045 412.527 566.966 412.527H607.048C614.876 412.527 621.245 418.895 621.245 426.723V520.252C621.245 523.573 622.564 526.759 624.912 529.108L642.778 546.973L624.912 564.839C622.564 567.188 621.245 570.373 621.245 573.695V667.223C621.245 675.052 614.876 681.42 607.048 681.42H566.966C560.047 681.42 554.439 687.028 554.439 693.947C554.441 700.864 560.047 706.472 566.966 706.472Z" fill="black"/>
<path d="M460.076 601.253C453.158 601.253 447.55 606.861 447.55 613.78C447.55 620.697 453.156 626.306 460.076 626.306H461.747C468.665 626.306 474.273 620.698 474.273 613.78C474.273 606.862 468.667 601.253 461.747 601.253H460.076Z" fill="black"/>
<path d="M567.802 613.778C567.802 606.861 562.195 601.252 555.275 601.252H553.605C546.686 601.252 541.078 606.859 541.078 613.778C541.078 620.695 546.684 626.305 553.605 626.305H555.275C562.192 626.305 567.802 620.697 567.802 613.778Z" fill="black"/>
<path d="M368.219 626.305C375.138 626.305 380.745 620.697 380.745 613.778C380.745 606.861 375.139 601.252 368.219 601.252H366.549C359.63 601.252 354.022 606.859 354.022 613.778C354.022 620.695 359.628 626.305 366.549 626.305H368.219Z" fill="black"/>
<path d="M348.248 225.22C355.166 225.22 360.775 219.612 360.775 212.694V145.053H374.972C381.889 145.053 387.498 139.445 387.498 132.527C387.498 125.609 381.891 120 374.972 120H321.527C314.609 120 309 125.608 309 132.527C309 139.444 314.608 145.053 321.527 145.053H335.723V212.694C335.722 219.611 341.331 225.22 348.248 225.22Z" fill="white"/>
</svg>
