<svg width="800" height="800" viewBox="0 0 800 800" fill="none" xmlns="http://www.w3.org/2000/svg">
<path d="M166.131 12.5264C151.372 12.5264 139.409 24.4889 139.409 39.2482V760.751C139.409 775.511 151.372 787.473 166.131 787.473H754.023C768.783 787.473 780.745 775.511 780.745 760.751V132.776L660.495 12.5264H166.131Z" fill="#ECEDEF"/>
<path d="M687.216 132.776H780.744L660.494 12.5264V106.054C660.492 120.811 672.458 132.776 687.216 132.776Z" fill="#D9DCDF"/>
<path d="M620.411 306.472H139.409V65.9707H620.411C627.789 65.9707 633.772 71.9535 633.772 79.3316V293.11C633.772 300.489 627.789 306.472 620.411 306.472Z" fill="#C6CACF"/>
<path d="M607.05 279.75H19.1577L126.047 172.86L19.1577 65.9707H607.05V279.75Z" fill="#C3E7FC"/>
<path d="M780.745 666.389C787.664 666.389 793.272 660.781 793.272 653.862V132.777C793.272 129.495 791.925 126.241 789.605 123.92L669.355 3.67031C667.031 1.34844 663.777 0 660.494 0H166.131C144.489 0 126.883 17.6062 126.883 39.2484V53.4453H19.1579C8.24069 53.4453 2.57195 67.0984 10.3001 74.8281L108.333 172.861L10.3001 270.892C2.57195 278.622 8.23913 292.275 19.1579 292.275H126.883V760.752C126.883 782.394 144.489 800 166.131 800H754.024C775.666 800 793.272 782.394 793.272 760.752V707.306C793.272 700.389 787.666 694.78 780.745 694.78C773.825 694.78 768.219 700.387 768.219 707.306V760.752C768.219 768.58 761.85 774.948 754.022 774.948H166.131C158.303 774.948 151.934 768.58 151.934 760.752V292.275H232.936C239.855 292.275 245.463 286.667 245.463 279.748C245.463 272.83 239.856 267.222 232.936 267.222H49.3985L134.905 181.716C139.797 176.823 139.797 168.892 134.905 164.002L49.3985 78.4969H594.523V267.223H286.381C279.463 267.223 273.855 272.831 273.855 279.75C273.855 286.669 279.461 292.277 286.381 292.277H607.05C613.969 292.277 619.577 286.669 619.577 279.75V65.9703C619.577 59.0531 613.97 53.4437 607.05 53.4437H151.934V39.2469C151.934 31.4188 158.303 25.05 166.131 25.05H647.969V106.052C647.969 127.694 665.575 145.3 687.217 145.3H768.219V653.859C768.219 660.781 773.825 666.389 780.745 666.389ZM687.217 120.25C679.389 120.25 673.02 113.881 673.02 106.053V42.7656L750.503 120.25H687.217Z" fill="black"/>
<path d="M620.913 629.111H367.052C359.674 629.111 353.691 623.128 353.691 615.75V455.416C353.691 448.038 359.674 442.055 367.052 442.055H620.914C628.292 442.055 634.275 448.038 634.275 455.416V615.75C634.275 623.128 628.292 629.111 620.913 629.111Z" fill="#D9DCDF"/>
<path d="M393.773 589.026V442.053H367.052C359.674 442.053 353.691 448.036 353.691 455.414V615.75C353.691 623.128 359.674 629.111 367.052 629.111H620.914C628.292 629.111 634.275 623.128 634.275 615.75V589.028H393.773V589.026Z" fill="#C6CACF"/>
<path d="M353.689 495.498L273.523 477.683V593.481L353.689 575.665V495.498Z" fill="#7B848F"/>
<path d="M353.689 495.499L326.967 489.56V581.605L353.689 575.666V495.499Z" fill="#68727E"/>
<path d="M440.536 428.692C462.673 428.692 480.619 410.746 480.619 388.609C480.619 366.472 462.673 348.526 440.536 348.526C418.399 348.526 400.453 366.472 400.453 388.609C400.453 410.746 418.399 428.692 440.536 428.692Z" fill="#FF8C78"/>
<path d="M440.536 401.97C447.915 401.97 453.897 395.988 453.897 388.609C453.897 381.23 447.915 375.248 440.536 375.248C433.157 375.248 427.175 381.23 427.175 388.609C427.175 395.988 433.157 401.97 440.536 401.97Z" fill="#DB6B5E"/>
<path d="M547.425 428.692C569.562 428.692 587.508 410.746 587.508 388.609C587.508 366.472 569.562 348.526 547.425 348.526C525.288 348.526 507.342 366.472 507.342 388.609C507.342 410.746 525.288 428.692 547.425 428.692Z" fill="#FF8C78"/>
<path d="M547.425 401.97C554.804 401.97 560.786 395.988 560.786 388.609C560.786 381.23 554.804 375.248 547.425 375.248C540.046 375.248 534.064 381.23 534.064 388.609C534.064 395.988 540.046 401.97 547.425 401.97Z" fill="#DB6B5E"/>
<path d="M473.941 482.138V589.027L540.747 535.583L473.941 482.138Z" fill="#FFC44F"/>
<path d="M634.275 508.025C641.194 508.025 646.802 502.417 646.802 495.498V455.416C646.802 441.141 635.189 429.528 620.914 429.528H580.444C592.384 419.877 600.037 405.122 600.037 388.609C600.037 359.6 576.436 336 547.428 336C518.419 336 494.819 359.602 494.819 388.609C494.819 405.122 502.473 419.877 514.413 429.528H473.556C485.497 419.877 493.15 405.122 493.15 388.609C493.15 359.6 469.548 336 440.541 336C411.533 336 387.931 359.602 387.931 388.609C387.931 405.122 395.586 419.877 407.525 429.528H367.055C352.78 429.528 341.167 441.141 341.167 455.416V479.884L276.244 465.458C268.541 463.742 261 469.802 261 477.684V593.481C261 601.364 268.541 607.425 276.244 605.708L341.167 591.281V615.748C341.167 630.023 352.78 641.636 367.055 641.636H476.606L455.38 705.316C453.192 711.88 456.738 718.972 463.302 721.161C469.867 723.347 476.958 719.802 479.147 713.237L493.986 668.722L508.825 713.237C511.073 719.98 518.72 723.522 525.33 720.917C531.433 718.513 534.662 711.528 532.592 705.314L511.364 641.636H620.916C635.191 641.636 646.803 630.023 646.803 615.748V548.942C646.803 542.025 641.197 536.416 634.277 536.416C627.356 536.416 621.75 542.023 621.75 548.942V615.748C621.75 616.209 621.373 616.583 620.916 616.583H367.052C366.591 616.583 366.217 616.209 366.217 615.748V455.416C366.217 454.955 366.591 454.581 367.052 454.581H620.914C621.373 454.581 621.748 454.955 621.748 455.416V495.498C621.748 502.417 627.355 508.025 634.275 508.025ZM547.427 361.052C562.622 361.052 574.984 373.414 574.984 388.609C574.984 403.805 562.622 416.167 547.427 416.167C532.231 416.167 519.869 403.805 519.869 388.609C519.869 373.414 532.231 361.052 547.427 361.052ZM440.538 361.052C455.733 361.052 468.095 373.414 468.095 388.609C468.095 403.805 455.733 416.167 440.538 416.167C425.342 416.167 412.98 403.805 412.98 388.609C412.98 373.414 425.342 361.052 440.538 361.052ZM286.048 577.866V493.3L341.163 505.547V565.619L286.048 577.866Z" fill="black"/>
<path d="M481.766 472.358C473.714 465.915 461.413 471.862 461.413 482.137V589.026C461.413 599.29 473.7 605.256 481.766 598.806L548.572 545.361C554.742 540.423 554.742 530.736 548.572 525.798L481.766 472.358ZM486.467 562.965V508.2L520.695 535.584L486.467 562.965Z" fill="black"/>
<path d="M181.501 226C186.93 226 191.75 222.557 193.465 217.453L220.369 137.44C222.542 130.978 218.912 123.779 212.393 121.626C205.872 119.472 198.614 123.071 196.44 129.534L181.501 173.963L166.56 129.534C164.386 123.07 157.129 119.471 150.607 121.626C144.088 123.781 140.458 130.975 142.631 137.44L169.535 217.453C171.252 222.555 176.072 226 181.501 226Z" fill="black"/>
<path d="M459.393 145.239C466.355 145.239 472 139.589 472 132.619C472 125.651 466.356 120 459.393 120H405.607C398.645 120 393 125.649 393 132.619V213.381C393 220.349 398.644 226 405.607 226H459.393C466.355 226 472 220.351 472 213.381C472 206.412 466.356 200.761 459.393 200.761H418.213V185.619H432.501C439.462 185.619 445.107 179.969 445.107 172.999C445.107 166.031 439.464 160.38 432.501 160.38H418.213V145.237H459.393V145.239Z" fill="black"/>
<path d="M256 213.381V132.619C256 125.651 250.404 120 243.5 120C236.597 120 231 125.649 231 132.619V213.381C231 220.349 236.596 226 243.5 226C250.404 226 256 220.349 256 213.381Z" fill="black"/>
<path d="M548.972 226.22C555.889 226.22 561.498 220.612 561.498 213.694V133.527C561.498 126.609 555.891 121 548.972 121H495.527C488.609 121 483 126.608 483 133.527V213.694C483 220.611 488.608 226.22 495.527 226.22H548.972ZM508.053 146.053H536.445V201.167H508.053V146.053Z" fill="black"/>
<path d="M373.858 212.694V159.248C373.858 137.606 356.252 120 334.609 120H294.527C287.609 120 282 125.608 282 132.527V212.694C282 219.611 287.608 225.22 294.527 225.22H361.333C368.248 225.22 373.858 219.611 373.858 212.694ZM348.805 200.167H307.052V145.053H334.609C342.438 145.053 348.806 151.422 348.806 159.25V200.167H348.805Z" fill="black"/>
</svg>
